<svg width="610" height="507" viewBox="0 0 610 507" fill="none" xmlns="http://www.w3.org/2000/svg">
<g clip-path="url(#clip0_103_73)">
<path d="M0 24C0 10.7452 10.7452 0 24 0H610V507H24C10.7452 507 0 496.255 0 483V24Z" fill="url(#paint0_radial_103_73)"/>
<path d="M1.00002 -80L1.00006 592M39.0625 -80L39.0626 592M77.125 -80L77.125 592M115.188 -80L115.188 592M153.25 -80L153.25 592M191.312 -80L191.313 592M229.375 -80L229.375 592M267.437 -80L267.438 592M305.5 -80L305.5 592M343.562 -80L343.563 592M381.625 -80L381.625 592M419.687 -80L419.688 592M457.75 -80L457.75 592M495.812 -80L495.813 592M533.875 -80L533.875 592M571.937 -80L571.938 592M610 -80L610 592M610 -60.8963H1.00002M610 -27.1839H1.00002M610 6.52843H1.00002M610 40.2408H1.00002M610 73.9532H1.00002M610 107.666H1.00002M610 141.378H1.00001M610 175.09H1.00001M610 208.803H1.00001M610 242.515H1.00001M610 276.227H1.00001M610 309.94H1.00001M610 343.652H1M610 377.365H1M610 411.077H1M610 444.789H1M610 478.502H1.00002M610 512.214H1.00002M610 545.926H1.00002M610 579.639H1.00002" stroke="url(#paint1_radial_103_73)" stroke-width="2" stroke-linecap="round" stroke-dasharray="8 8"/>
<g filter="url(#filter0_b_103_73)">
<path d="M69 139C69 125.745 79.7452 115 93 115H553C566.255 115 577 125.745 577 139V335C577 337.209 575.209 339 573 339H73C70.7909 339 69 337.209 69 335V139Z" fill="url(#paint2_radial_103_73)"/>
<path d="M69.5 139C69.5 126.021 80.0213 115.5 93 115.5H553C565.979 115.5 576.5 126.021 576.5 139V335C576.5 336.933 574.933 338.5 573 338.5H73C71.067 338.5 69.5 336.933 69.5 335V139Z" stroke="url(#paint3_radial_103_73)"/>
</g>
<path d="M372.954 241.491L372.343 240.43C372.267 240.298 372.142 240.201 371.995 240.162C371.847 240.122 371.691 240.142 371.558 240.218L367.907 242.334C367.885 242.347 367.859 242.354 367.833 242.354C367.806 242.354 367.781 242.347 367.758 242.333C367.736 242.32 367.717 242.301 367.704 242.279C367.691 242.256 367.684 242.23 367.685 242.204L367.688 237.993C367.688 237.835 367.625 237.684 367.514 237.573C367.402 237.461 367.251 237.399 367.094 237.399H365.906C365.749 237.399 365.598 237.461 365.486 237.573C365.375 237.684 365.313 237.835 365.313 237.993L365.315 242.207C365.315 242.233 365.309 242.259 365.296 242.282C365.283 242.305 365.264 242.324 365.241 242.337C365.219 242.35 365.193 242.357 365.167 242.357C365.141 242.357 365.115 242.35 365.092 242.337L361.441 240.222C361.309 240.146 361.152 240.125 361.005 240.165C360.858 240.205 360.732 240.301 360.656 240.433L360.046 241.495C360.008 241.56 359.983 241.632 359.974 241.707C359.964 241.781 359.969 241.857 359.988 241.93C360.008 242.003 360.042 242.071 360.088 242.131C360.134 242.19 360.191 242.24 360.257 242.278L363.912 244.396C363.934 244.409 363.952 244.428 363.965 244.45C363.978 244.473 363.985 244.498 363.985 244.524C363.985 244.55 363.978 244.575 363.965 244.598C363.952 244.62 363.934 244.639 363.912 244.652L360.257 246.77C360.126 246.847 360.03 246.972 359.99 247.118C359.951 247.265 359.971 247.421 360.046 247.553L360.657 248.614C360.733 248.746 360.858 248.843 361.005 248.882C361.153 248.922 361.309 248.902 361.442 248.826L365.093 246.71C365.115 246.697 365.141 246.69 365.167 246.691C365.194 246.691 365.219 246.698 365.242 246.711C365.264 246.724 365.283 246.743 365.296 246.766C365.309 246.788 365.316 246.814 365.315 246.84L365.313 251.055C365.313 251.213 365.375 251.364 365.486 251.475C365.598 251.586 365.749 251.649 365.906 251.649H367.094C367.251 251.649 367.402 251.586 367.514 251.475C367.625 251.364 367.688 251.213 367.688 251.055L367.685 246.837C367.685 246.811 367.691 246.785 367.704 246.762C367.717 246.74 367.736 246.721 367.759 246.707C367.781 246.694 367.807 246.687 367.833 246.687C367.859 246.687 367.885 246.694 367.908 246.707L371.559 248.822C371.691 248.898 371.848 248.919 371.995 248.879C372.142 248.839 372.268 248.743 372.344 248.611L372.955 247.55C372.993 247.485 373.017 247.413 373.027 247.338C373.037 247.263 373.032 247.187 373.012 247.114C372.992 247.042 372.958 246.974 372.912 246.914C372.866 246.854 372.809 246.804 372.744 246.767L369.089 244.649C369.066 244.636 369.048 244.617 369.035 244.594C369.022 244.572 369.015 244.546 369.015 244.521C369.015 244.495 369.022 244.469 369.035 244.447C369.048 244.424 369.066 244.406 369.089 244.393L372.744 242.274C372.875 242.198 372.971 242.073 373.011 241.926C373.05 241.779 373.03 241.623 372.954 241.491Z" stroke="#8DFFDE" stroke-width="1.1875" stroke-linecap="round" stroke-linejoin="round"/>
<path d="M372.954 282.468L372.343 281.407C372.267 281.274 372.142 281.178 371.995 281.138C371.847 281.099 371.691 281.119 371.558 281.195L367.907 283.31C367.885 283.323 367.859 283.33 367.833 283.33C367.806 283.33 367.781 283.323 367.758 283.31C367.736 283.297 367.717 283.278 367.704 283.255C367.691 283.232 367.684 283.207 367.685 283.18L367.688 278.969C367.688 278.812 367.625 278.661 367.514 278.549C367.402 278.438 367.251 278.375 367.094 278.375H365.906C365.749 278.375 365.598 278.438 365.486 278.549C365.375 278.661 365.313 278.812 365.313 278.969L365.315 283.184C365.315 283.21 365.309 283.236 365.296 283.258C365.283 283.281 365.264 283.3 365.241 283.313C365.219 283.326 365.193 283.333 365.167 283.334C365.141 283.334 365.115 283.327 365.092 283.314L361.441 281.198C361.309 281.122 361.152 281.102 361.005 281.142C360.858 281.181 360.732 281.278 360.656 281.41L360.046 282.471C360.008 282.536 359.983 282.609 359.974 282.683C359.964 282.758 359.969 282.834 359.988 282.907C360.008 282.979 360.042 283.048 360.088 283.107C360.134 283.167 360.191 283.217 360.257 283.254L363.912 285.372C363.934 285.386 363.952 285.404 363.965 285.427C363.978 285.449 363.985 285.475 363.985 285.5C363.985 285.526 363.978 285.552 363.965 285.574C363.952 285.597 363.934 285.615 363.912 285.629L360.257 287.747C360.126 287.823 360.03 287.948 359.99 288.095C359.951 288.241 359.971 288.398 360.046 288.53L360.657 289.591C360.733 289.723 360.858 289.819 361.005 289.859C361.153 289.899 361.309 289.878 361.442 289.802L365.093 287.687C365.115 287.674 365.141 287.667 365.167 287.667C365.194 287.667 365.219 287.674 365.242 287.687C365.264 287.7 365.283 287.719 365.296 287.742C365.309 287.765 365.316 287.791 365.315 287.817L365.313 292.032C365.313 292.189 365.375 292.34 365.486 292.452C365.598 292.563 365.749 292.625 365.906 292.625H367.094C367.251 292.625 367.402 292.563 367.514 292.452C367.625 292.34 367.688 292.189 367.688 292.032L367.685 287.814C367.685 287.787 367.691 287.762 367.704 287.739C367.717 287.716 367.736 287.697 367.759 287.684C367.781 287.671 367.807 287.664 367.833 287.664C367.859 287.664 367.885 287.671 367.908 287.684L371.559 289.799C371.691 289.875 371.848 289.895 371.995 289.856C372.142 289.816 372.268 289.719 372.344 289.587L372.955 288.526C372.993 288.461 373.017 288.389 373.027 288.314C373.037 288.24 373.032 288.164 373.012 288.091C372.992 288.018 372.958 287.95 372.912 287.89C372.866 287.831 372.809 287.781 372.744 287.743L369.089 285.625C369.066 285.612 369.048 285.593 369.035 285.571C369.022 285.548 369.015 285.523 369.015 285.497C369.015 285.471 369.022 285.446 369.035 285.423C369.048 285.401 369.066 285.382 369.089 285.369L372.744 283.251C372.875 283.175 372.971 283.049 373.011 282.903C373.05 282.756 373.03 282.599 372.954 282.468Z" stroke="#8DFFDE" stroke-width="1.1875" stroke-linecap="round" stroke-linejoin="round"/>
<path d="M171.554 235C164.632 235 159 240.577 159 247.432C159 254.286 164.632 259.863 171.554 259.863C178.477 259.863 184.109 254.286 184.109 247.432C184.109 240.577 178.477 235 171.554 235ZM175.737 240.748C176.602 240.749 177.448 241.004 178.166 241.481C178.885 241.958 179.445 242.635 179.776 243.427C180.106 244.219 180.192 245.09 180.022 245.93C179.853 246.77 179.435 247.542 178.823 248.147C178.211 248.753 177.431 249.165 176.582 249.331C175.734 249.498 174.854 249.412 174.055 249.084C173.256 248.756 172.573 248.2 172.092 247.488C171.612 246.775 171.355 245.938 171.355 245.081C171.355 244.512 171.469 243.948 171.69 243.422C171.91 242.896 172.233 242.418 172.64 242.016C173.047 241.613 173.53 241.294 174.061 241.077C174.592 240.859 175.162 240.747 175.737 240.748ZM166.376 242.323C167.084 242.324 167.775 242.533 168.363 242.923C168.952 243.313 169.41 243.867 169.68 244.515C169.95 245.163 170.02 245.876 169.882 246.563C169.743 247.251 169.402 247.882 168.901 248.377C168.4 248.873 167.762 249.21 167.068 249.346C166.373 249.483 165.653 249.412 165 249.144C164.346 248.875 163.787 248.421 163.393 247.838C163 247.255 162.79 246.57 162.79 245.869C162.791 245.403 162.884 244.942 163.064 244.511C163.244 244.081 163.508 243.69 163.841 243.361C164.174 243.031 164.569 242.77 165.004 242.592C165.439 242.414 165.905 242.323 166.376 242.323ZM161.798 251.587C163.276 250.793 165.17 250.396 166.376 250.396C167.281 250.396 168.447 250.575 169.594 251.005C168.825 251.43 168.132 251.978 167.542 252.625C166.746 253.522 166.289 254.593 166.289 255.663V256.56C164.29 255.426 162.715 253.683 161.798 251.59V251.587ZM171.554 257.951C170.332 257.952 169.119 257.743 167.969 257.333V255.717C167.969 252.573 173.145 250.99 175.737 250.99C177.125 250.99 179.261 251.446 180.94 252.353C180.037 254.042 178.685 255.455 177.032 256.441C175.378 257.428 173.485 257.949 171.554 257.951Z" fill="#C6DBF8"/>
<path d="M171.5 274C164.608 274 159 279.553 159 286.378C159 293.203 164.608 298.756 171.5 298.756C178.392 298.756 184 293.203 184 286.378C184 279.553 178.392 274 171.5 274ZM171.62 279.713C172.476 279.713 173.313 279.964 174.024 280.435C174.736 280.906 175.29 281.575 175.618 282.358C175.945 283.141 176.031 284.002 175.864 284.833C175.697 285.665 175.285 286.428 174.68 287.027C174.075 287.626 173.304 288.035 172.464 288.2C171.625 288.365 170.755 288.28 169.964 287.956C169.174 287.632 168.498 287.083 168.022 286.378C167.547 285.673 167.293 284.845 167.293 283.998C167.293 282.861 167.749 281.771 168.561 280.968C169.372 280.164 170.473 279.713 171.62 279.713ZM171.5 296.852C170.041 296.852 168.598 296.553 167.262 295.973C165.926 295.394 164.725 294.546 163.737 293.483C164.268 290.759 169.04 290.187 171.5 290.187C173.96 290.187 178.732 290.759 179.263 293.483C178.275 294.545 177.075 295.393 175.738 295.973C174.402 296.553 172.959 296.852 171.5 296.852Z" fill="#83E4AD"/>
<path d="M97.6062 211.394H99.3722C99.5342 212.552 100.636 213.249 102.191 213.249C103.674 213.249 104.735 212.487 104.735 211.442C104.735 210.535 104.119 209.968 102.556 209.628L101.284 209.36C98.9429 208.866 97.8817 207.781 97.8817 206.096C97.8817 204.095 99.6396 202.718 102.127 202.718C104.605 202.718 106.298 204.119 106.355 206.16H104.597C104.484 204.986 103.52 204.265 102.102 204.265C100.733 204.265 99.7287 204.929 99.7287 205.998C99.7287 206.849 100.328 207.416 101.843 207.74L103.123 208.007C105.569 208.526 106.574 209.506 106.574 211.207C106.574 213.411 104.84 214.796 102.118 214.796C99.4775 214.796 97.7197 213.476 97.6062 211.394ZM109.312 214.691C108.721 214.691 108.251 214.221 108.251 213.629C108.251 213.038 108.721 212.568 109.312 212.568C109.903 212.568 110.373 213.038 110.373 213.629C110.373 214.221 109.903 214.691 109.312 214.691ZM114.334 214.602H112.568V202.912H114.213L120.272 211.531H120.337V202.912H122.103V214.602H120.467L114.407 205.99H114.334V214.602ZM127.717 214.764C125.279 214.764 123.675 213.087 123.675 210.341C123.675 207.602 125.287 205.926 127.717 205.926C130.147 205.926 131.759 207.602 131.759 210.341C131.759 213.087 130.155 214.764 127.717 214.764ZM127.717 213.322C129.094 213.322 129.977 212.236 129.977 210.341C129.977 208.453 129.086 207.368 127.717 207.368C126.348 207.368 125.457 208.453 125.457 210.341C125.457 212.236 126.348 213.322 127.717 213.322Z" fill="#F8F4F4"/>
<path d="M104.195 251.626V240.357H104.159L100.721 242.751V241.122L104.177 238.638H105.761V251.626H104.195Z" fill="white"/>
<path d="M192.63 250.517H194.25C194.439 251.912 195.735 252.758 197.599 252.758C199.363 252.758 200.641 251.831 200.641 250.553C200.641 249.464 199.921 248.743 198.121 248.347L196.68 248.032C194.079 247.465 192.954 246.286 192.954 244.441C192.954 242.299 194.844 240.796 197.536 240.796C200.128 240.796 202 242.344 202.072 244.549H200.452C200.308 243.127 199.183 242.254 197.491 242.254C195.87 242.254 194.619 243.046 194.619 244.369C194.619 245.395 195.312 246.097 197.086 246.484L198.526 246.799C201.235 247.393 202.306 248.473 202.306 250.31C202.306 252.713 200.416 254.216 197.509 254.216C194.673 254.216 192.783 252.758 192.63 250.517ZM206.699 254.162C204.835 254.162 203.584 253.037 203.584 251.354C203.584 249.752 204.817 248.743 206.978 248.617L209.66 248.464V247.681C209.66 246.538 208.904 245.854 207.608 245.854C206.401 245.854 205.645 246.421 205.447 247.339H203.935C204.043 245.719 205.429 244.477 207.644 244.477C209.84 244.477 211.226 245.665 211.226 247.528V254H209.741V252.389H209.705C209.147 253.46 207.959 254.162 206.699 254.162ZM207.05 252.83C208.526 252.83 209.66 251.795 209.66 250.445V249.68L207.158 249.833C205.897 249.914 205.177 250.472 205.177 251.354C205.177 252.245 205.924 252.83 207.05 252.83ZM220.992 247.708H219.462C219.237 246.691 218.445 245.854 217.068 245.854C215.447 245.854 214.349 247.195 214.349 249.32C214.349 251.498 215.465 252.785 217.086 252.785C218.364 252.785 219.201 252.11 219.471 250.985H221.01C220.767 252.848 219.201 254.162 217.077 254.162C214.484 254.162 212.756 252.335 212.756 249.32C212.756 246.367 214.475 244.477 217.059 244.477C219.399 244.477 220.794 246.025 220.992 247.708ZM222.531 254V241.012H224.097V246.133H224.133C224.655 245.089 225.681 244.477 227.104 244.477C229.156 244.477 230.398 245.863 230.398 247.951V254H228.832V248.239C228.832 246.754 228.085 245.863 226.618 245.863C225.06 245.863 224.097 246.925 224.097 248.545V254H222.531ZM233.251 242.974C232.711 242.974 232.27 242.533 232.27 241.993C232.27 241.444 232.711 241.012 233.251 241.012C233.8 241.012 234.232 241.444 234.232 241.993C234.232 242.533 233.8 242.974 233.251 242.974ZM232.468 254V244.639H234.034V254H232.468ZM236.15 254V244.639H237.626V246.133H237.662C238.184 245.125 239.183 244.477 240.632 244.477C242.684 244.477 243.872 245.8 243.872 247.924V254H242.306V248.203C242.306 246.691 241.595 245.863 240.155 245.863C238.679 245.863 237.716 246.907 237.716 248.491V254H236.15Z" fill="#8DFFDE"/>
<path d="M196.166 293H194.545V281.47H190.45V280.012H200.261V281.47H196.166V293ZM205.509 290.318H207.048C206.778 291.956 205.194 293.162 203.15 293.162C200.468 293.162 198.839 291.299 198.839 288.356C198.839 285.448 200.495 283.477 203.078 283.477C205.608 283.477 207.165 285.313 207.165 288.149V288.743H200.45V288.833C200.45 290.624 201.503 291.803 203.186 291.803C204.374 291.803 205.248 291.2 205.509 290.318ZM203.051 284.836C201.584 284.836 200.558 285.961 200.459 287.518H205.545C205.509 285.952 204.527 284.836 203.051 284.836ZM208.587 286.222C208.587 284.62 210 283.477 212.025 283.477C214.077 283.477 215.446 284.683 215.509 286.339H214.014C213.897 285.358 213.177 284.755 212.025 284.755C210.882 284.755 210.126 285.322 210.126 286.141C210.126 286.789 210.603 287.23 211.647 287.482L213.132 287.842C215.023 288.302 215.707 289.04 215.707 290.381C215.707 292.01 214.167 293.162 212.079 293.162C209.883 293.162 208.515 292.055 208.335 290.3H209.901C210.09 291.371 210.81 291.884 212.079 291.884C213.348 291.884 214.131 291.344 214.131 290.498C214.131 289.823 213.762 289.436 212.691 289.175L211.206 288.815C209.442 288.392 208.587 287.572 208.587 286.222ZM217.84 281.38H219.406V283.639H221.224V284.926H219.406V290.489C219.406 291.344 219.766 291.731 220.567 291.731C220.747 291.731 221.107 291.704 221.215 291.686V293C221.026 293.045 220.594 293.072 220.225 293.072C218.506 293.072 217.84 292.37 217.84 290.57V284.926H216.445V283.639H217.84V281.38ZM223.762 281.974C223.222 281.974 222.781 281.533 222.781 280.993C222.781 280.444 223.222 280.012 223.762 280.012C224.312 280.012 224.744 280.444 224.744 280.993C224.744 281.533 224.312 281.974 223.762 281.974ZM222.979 293V283.639H224.546V293H222.979ZM226.661 293V283.639H228.137V285.133H228.173C228.695 284.125 229.694 283.477 231.143 283.477C233.195 283.477 234.384 284.8 234.384 286.924V293H232.817V287.203C232.817 285.691 232.106 284.863 230.666 284.863C229.19 284.863 228.227 285.907 228.227 287.491V293H226.661ZM240.243 296.528C238.182 296.528 236.553 295.367 236.292 293.774H237.903C238.209 294.629 239.136 295.196 240.306 295.196C241.926 295.196 242.907 294.26 242.907 292.865V291.389H242.871C242.295 292.406 241.188 293.072 239.874 293.072C237.489 293.072 235.923 291.191 235.923 288.284C235.923 285.349 237.489 283.477 239.91 283.477C241.233 283.477 242.331 284.125 242.952 285.214H242.979V283.639H244.474V292.811C244.474 295.043 242.826 296.528 240.243 296.528ZM240.189 291.695C241.818 291.695 242.907 290.345 242.907 288.284C242.907 286.222 241.818 284.854 240.189 284.854C238.578 284.854 237.525 286.186 237.525 288.284C237.525 290.381 238.578 291.695 240.189 291.695ZM250.297 293V283.639H251.773V285.169H251.809C252.115 284.134 252.979 283.477 254.078 283.477C254.348 283.477 254.582 283.522 254.708 283.54V285.061C254.582 285.016 254.249 284.971 253.871 284.971C252.655 284.971 251.863 285.844 251.863 287.167V293H250.297ZM261.746 290.318H263.286C263.015 291.956 261.431 293.162 259.388 293.162C256.706 293.162 255.077 291.299 255.077 288.356C255.077 285.448 256.733 283.477 259.316 283.477C261.845 283.477 263.403 285.313 263.403 288.149V288.743H256.688V288.833C256.688 290.624 257.741 291.803 259.424 291.803C260.612 291.803 261.485 291.2 261.746 290.318ZM259.289 284.836C257.822 284.836 256.796 285.961 256.697 287.518H261.782C261.746 285.952 260.765 284.836 259.289 284.836ZM272.763 286.708H271.233C271.008 285.691 270.216 284.854 268.839 284.854C267.219 284.854 266.121 286.195 266.121 288.32C266.121 290.498 267.237 291.785 268.857 291.785C270.135 291.785 270.972 291.11 271.242 289.985H272.781C272.538 291.848 270.972 293.162 268.848 293.162C266.256 293.162 264.528 291.335 264.528 288.32C264.528 285.367 266.247 283.477 268.83 283.477C271.17 283.477 272.565 285.025 272.763 286.708ZM278.101 293.162C275.509 293.162 273.763 291.299 273.763 288.32C273.763 285.331 275.509 283.477 278.101 283.477C280.684 283.477 282.43 285.331 282.43 288.32C282.43 291.299 280.684 293.162 278.101 293.162ZM278.101 291.785C279.757 291.785 280.837 290.525 280.837 288.32C280.837 286.114 279.757 284.854 278.101 284.854C276.445 284.854 275.356 286.114 275.356 288.32C275.356 290.525 276.445 291.785 278.101 291.785ZM284.015 293V283.639H285.491V285.169H285.527C285.833 284.134 286.697 283.477 287.795 283.477C288.065 283.477 288.299 283.522 288.425 283.54V285.061C288.299 285.016 287.966 284.971 287.588 284.971C286.373 284.971 285.581 285.844 285.581 287.167V293H284.015ZM292.8 293.162C290.414 293.162 288.794 291.254 288.794 288.32C288.794 285.385 290.405 283.477 292.764 283.477C294.105 283.477 295.185 284.134 295.743 285.16H295.779V280.012H297.345V293H295.851V291.416H295.824C295.221 292.496 294.15 293.162 292.8 293.162ZM293.097 284.854C291.44 284.854 290.396 286.204 290.396 288.32C290.396 290.444 291.44 291.785 293.097 291.785C294.708 291.785 295.788 290.417 295.788 288.32C295.788 286.231 294.708 284.854 293.097 284.854ZM300.324 281.974C299.784 281.974 299.343 281.533 299.343 280.993C299.343 280.444 299.784 280.012 300.324 280.012C300.873 280.012 301.305 280.444 301.305 280.993C301.305 281.533 300.873 281.974 300.324 281.974ZM299.541 293V283.639H301.107V293H299.541ZM303.223 293V283.639H304.699V285.133H304.735C305.257 284.125 306.256 283.477 307.705 283.477C309.757 283.477 310.945 284.8 310.945 286.924V293H309.379V287.203C309.379 285.691 308.668 284.863 307.228 284.863C305.752 284.863 304.789 285.907 304.789 287.491V293H303.223ZM316.805 296.528C314.744 296.528 313.115 295.367 312.854 293.774H314.465C314.771 294.629 315.698 295.196 316.868 295.196C318.488 295.196 319.469 294.26 319.469 292.865V291.389H319.433C318.857 292.406 317.75 293.072 316.436 293.072C314.051 293.072 312.485 291.191 312.485 288.284C312.485 285.349 314.051 283.477 316.472 283.477C317.795 283.477 318.893 284.125 319.514 285.214H319.541V283.639H321.035V292.811C321.035 295.043 319.388 296.528 316.805 296.528ZM316.751 291.695C318.38 291.695 319.469 290.345 319.469 288.284C319.469 286.222 318.38 284.854 316.751 284.854C315.14 284.854 314.087 286.186 314.087 288.284C314.087 290.381 315.14 291.695 316.751 291.695Z" fill="#8DFFDE"/>
<path d="M382.639 247.131H384.268C384.421 248.535 385.753 249.462 387.608 249.462C389.363 249.462 390.641 248.535 390.641 247.257C390.641 246.159 389.876 245.484 388.13 245.034L386.464 244.602C384.07 243.99 383.008 242.937 383.008 241.173C383.008 239.012 384.898 237.5 387.599 237.5C390.182 237.5 392.054 239.03 392.126 241.209H390.506C390.362 239.813 389.237 238.958 387.545 238.958C385.861 238.958 384.691 239.831 384.691 241.101C384.691 242.082 385.411 242.667 387.176 243.126L388.535 243.486C391.226 244.161 392.315 245.196 392.315 247.059C392.315 249.435 390.443 250.921 387.455 250.921C384.7 250.921 382.792 249.426 382.639 247.131ZM394.466 239.084H396.032V241.344H397.851V242.631H396.032V248.193C396.032 249.048 396.392 249.435 397.194 249.435C397.374 249.435 397.734 249.408 397.842 249.39V250.705C397.653 250.75 397.221 250.777 396.852 250.777C395.132 250.777 394.466 250.075 394.466 248.274V242.631H393.071V241.344H394.466V239.084ZM402.666 247.653H404.277C404.313 248.751 405.15 249.516 406.329 249.516C407.761 249.516 408.535 248.661 408.535 247.077V237.716H410.155V247.086C410.155 249.552 408.733 251.011 406.338 251.011C404.178 251.011 402.666 249.624 402.666 247.653ZM416.312 250.867C413.719 250.867 411.973 249.003 411.973 246.024C411.973 243.036 413.719 241.182 416.312 241.182C418.895 241.182 420.641 243.036 420.641 246.024C420.641 249.003 418.895 250.867 416.312 250.867ZM416.312 249.489C417.968 249.489 419.048 248.229 419.048 246.024C419.048 243.819 417.968 242.559 416.312 242.559C414.655 242.559 413.566 243.819 413.566 246.024C413.566 248.229 414.655 249.489 416.312 249.489ZM422.306 250.705V237.716H423.872V242.838H423.908C424.43 241.794 425.456 241.182 426.879 241.182C428.931 241.182 430.173 242.568 430.173 244.656V250.705H428.607V244.944C428.607 243.459 427.86 242.568 426.393 242.568C424.835 242.568 423.872 243.63 423.872 245.25V250.705H422.306ZM432.162 250.705V241.344H433.638V242.838H433.674C434.196 241.83 435.195 241.182 436.645 241.182C438.697 241.182 439.885 242.505 439.885 244.629V250.705H438.319V244.908C438.319 243.396 437.608 242.568 436.168 242.568C434.691 242.568 433.728 243.612 433.728 245.196V250.705H432.162ZM443.206 250.795C442.63 250.795 442.18 250.345 442.18 249.768C442.18 249.192 442.63 248.742 443.206 248.742C443.782 248.742 444.232 249.192 444.232 249.768C444.232 250.345 443.782 250.795 443.206 250.795ZM447.887 250.795C447.311 250.795 446.861 250.345 446.861 249.768C446.861 249.192 447.311 248.742 447.887 248.742C448.463 248.742 448.913 249.192 448.913 249.768C448.913 250.345 448.463 250.795 447.887 250.795Z" fill="#8DFFDE"/>
<path d="M388.454 291.259H386.833V285.669L382.225 278.27H384.07L387.617 284.103H387.671L391.217 278.27H393.062L388.454 285.669V291.259ZM395.591 290.089C397.068 290.089 398.202 289.054 398.202 287.703V286.938L395.699 287.091C394.439 287.172 393.719 287.73 393.719 288.613C393.719 289.504 394.466 290.089 395.591 290.089ZM395.24 291.421C393.377 291.421 392.126 290.296 392.126 288.613C392.126 287.01 393.359 286.002 395.519 285.876L398.202 285.723V284.94C398.202 283.797 397.446 283.113 396.149 283.113C394.943 283.113 394.187 283.68 393.989 284.598H392.477C392.585 282.978 393.971 281.736 396.185 281.736C398.382 281.736 399.768 282.924 399.768 284.787V291.259H398.283V289.648H398.247C397.689 290.719 396.5 291.421 395.24 291.421ZM401.595 284.481C401.595 282.879 403.026 281.736 405.087 281.736C407.023 281.736 408.445 282.888 408.517 284.472H407.023C406.915 283.572 406.185 283.014 405.033 283.014C403.89 283.014 403.134 283.581 403.134 284.4C403.134 285.048 403.629 285.48 404.691 285.75L406.14 286.101C408.031 286.578 408.715 287.262 408.715 288.64C408.715 290.269 407.176 291.421 404.988 291.421C402.936 291.421 401.505 290.305 401.343 288.649H402.909C403.08 289.621 403.818 290.143 405.087 290.143C406.356 290.143 407.14 289.603 407.14 288.757C407.14 288.09 406.753 287.73 405.699 287.451L404.052 287.028C402.405 286.605 401.595 285.759 401.595 284.481ZM410.425 291.259V278.27H411.991V283.392H412.027C412.549 282.348 413.575 281.736 414.997 281.736C417.05 281.736 418.292 283.122 418.292 285.21V291.259H416.726V285.498C416.726 284.013 415.978 283.122 414.511 283.122C412.954 283.122 411.991 284.184 411.991 285.804V291.259H410.425ZM424.16 291.421C421.568 291.421 419.822 289.558 419.822 286.578C419.822 283.59 421.568 281.736 424.16 281.736C426.744 281.736 428.49 283.59 428.49 286.578C428.49 289.558 426.744 291.421 424.16 291.421ZM424.16 290.044C425.816 290.044 426.897 288.784 426.897 286.578C426.897 284.373 425.816 283.113 424.16 283.113C422.504 283.113 421.415 284.373 421.415 286.578C421.415 288.784 422.504 290.044 424.16 290.044ZM433.62 291.421C431.235 291.421 429.615 289.513 429.615 286.578C429.615 283.644 431.226 281.736 433.584 281.736C434.925 281.736 436.006 282.393 436.564 283.419H436.6V278.27H438.166V291.259H436.672V289.675H436.645C436.042 290.755 434.97 291.421 433.62 291.421ZM433.917 283.113C432.261 283.113 431.217 284.463 431.217 286.578C431.217 288.703 432.261 290.044 433.917 290.044C435.528 290.044 436.609 288.676 436.609 286.578C436.609 284.49 435.528 283.113 433.917 283.113ZM443.368 290.089C444.844 290.089 445.979 289.054 445.979 287.703V286.938L443.476 287.091C442.216 287.172 441.496 287.73 441.496 288.613C441.496 289.504 442.243 290.089 443.368 290.089ZM443.017 291.421C441.154 291.421 439.903 290.296 439.903 288.613C439.903 287.01 441.136 286.002 443.296 285.876L445.979 285.723V284.94C445.979 283.797 445.222 283.113 443.926 283.113C442.72 283.113 441.964 283.68 441.766 284.598H440.254C440.362 282.978 441.748 281.736 443.962 281.736C446.159 281.736 447.545 282.924 447.545 284.787V291.259H446.06V289.648H446.024C445.466 290.719 444.277 291.421 443.017 291.421ZM453.395 291.259V278.27H454.961V283.392H454.997C455.52 282.348 456.546 281.736 457.968 281.736C460.02 281.736 461.262 283.122 461.262 285.21V291.259H459.696V285.498C459.696 284.013 458.949 283.122 457.482 283.122C455.925 283.122 454.961 284.184 454.961 285.804V291.259H453.395ZM467.131 291.421C464.538 291.421 462.792 289.558 462.792 286.578C462.792 283.59 464.538 281.736 467.131 281.736C469.714 281.736 471.46 283.59 471.46 286.578C471.46 289.558 469.714 291.421 467.131 291.421ZM467.131 290.044C468.787 290.044 469.867 288.784 469.867 286.578C469.867 284.373 468.787 283.113 467.131 283.113C465.475 283.113 464.385 284.373 464.385 286.578C464.385 288.784 465.475 290.044 467.131 290.044ZM473.827 291.349C473.251 291.349 472.801 290.899 472.801 290.323C472.801 289.747 473.251 289.297 473.827 289.297C474.403 289.297 474.854 289.747 474.854 290.323C474.854 290.899 474.403 291.349 473.827 291.349ZM478.508 291.349C477.932 291.349 477.482 290.899 477.482 290.323C477.482 289.747 477.932 289.297 478.508 289.297C479.084 289.297 479.534 289.747 479.534 290.323C479.534 290.899 479.084 291.349 478.508 291.349Z" fill="#8DFFDE"/>
<path d="M99.7458 282.024C99.7458 279.747 101.618 278.055 104.12 278.055C106.524 278.055 108.18 279.693 108.18 281.664C108.18 283.095 107.523 284.166 105.137 286.614L102.05 289.783V289.819H108.396V291.259H99.8268V290.143L104.399 285.372C106.154 283.545 106.56 282.843 106.56 281.763C106.56 280.485 105.605 279.468 104.12 279.468C102.518 279.468 101.312 280.566 101.312 282.024H99.7458Z" fill="white"/>
<path d="M161.685 214.602H159.919V202.912H161.563L167.622 211.531H167.687V202.912H169.453V214.602H167.817L161.757 205.99H161.685V214.602ZM173.674 214.747C172.005 214.747 170.838 213.71 170.838 212.179C170.838 210.689 171.981 209.773 174.006 209.66L176.339 209.522V208.866C176.339 207.918 175.699 207.351 174.63 207.351C173.617 207.351 172.985 207.837 172.831 208.599H171.179C171.276 207.06 172.588 205.926 174.694 205.926C176.76 205.926 178.081 207.019 178.081 208.728V214.602H176.404V213.2H176.363C175.869 214.148 174.792 214.747 173.674 214.747ZM174.16 213.362C175.383 213.362 176.339 212.52 176.339 211.41V210.737L174.241 210.867C173.196 210.94 172.604 211.402 172.604 212.131C172.604 212.876 173.22 213.362 174.16 213.362ZM179.782 214.602V206.079H181.451V207.513H181.491C181.872 206.566 182.763 205.934 183.913 205.934C185.096 205.934 185.955 206.541 186.295 207.602H186.335C186.773 206.566 187.777 205.934 188.992 205.934C190.677 205.934 191.779 207.052 191.779 208.745V214.602H190.021V209.166C190.021 208.064 189.43 207.432 188.393 207.432C187.356 207.432 186.635 208.202 186.635 209.279V214.602H184.918V209.036C184.918 208.056 184.294 207.432 183.306 207.432C182.269 207.432 181.532 208.242 181.532 209.336V214.602H179.782ZM199.118 212.098H200.779C200.536 213.654 199.062 214.764 197.109 214.764C194.606 214.764 193.091 213.071 193.091 210.381C193.091 207.708 194.631 205.926 197.037 205.926C199.402 205.926 200.876 207.594 200.876 210.179V210.778H194.857V210.883C194.857 212.366 195.749 213.346 197.15 213.346C198.146 213.346 198.884 212.844 199.118 212.098ZM197.037 207.335C195.813 207.335 194.955 208.267 194.866 209.555H199.127C199.086 208.251 198.26 207.335 197.037 207.335ZM209.269 214.764C206.83 214.764 205.227 213.087 205.227 210.341C205.227 207.602 206.839 205.926 209.269 205.926C211.699 205.926 213.311 207.602 213.311 210.341C213.311 213.087 211.707 214.764 209.269 214.764ZM209.269 213.322C210.646 213.322 211.529 212.236 211.529 210.341C211.529 208.453 210.638 207.368 209.269 207.368C207.9 207.368 207.009 208.453 207.009 210.341C207.009 212.236 207.9 213.322 209.269 213.322ZM215.174 214.602V207.465H214V206.096H215.174V205.261C215.174 203.609 215.952 202.831 217.686 202.831C218.042 202.831 218.439 202.872 218.666 202.912V204.208C218.496 204.176 218.261 204.16 218.026 204.16C217.264 204.16 216.908 204.54 216.908 205.294V206.096H218.633V207.465H216.932V214.602H215.174ZM223.891 204.062H225.649V206.079H227.269V207.465H225.649V212.163C225.649 212.9 225.973 213.233 226.686 213.233C226.864 213.233 227.147 213.216 227.261 213.192V214.577C227.066 214.626 226.678 214.658 226.289 214.658C224.563 214.658 223.891 214.002 223.891 212.358V207.465H222.651V206.079H223.891V204.062ZM228.776 214.602V202.912H230.509V207.505H230.55C231.02 206.509 231.951 205.934 233.247 205.934C235.119 205.934 236.237 207.181 236.237 209.109V214.602H234.479V209.449C234.479 208.194 233.847 207.44 232.615 207.44C231.319 207.44 230.525 208.332 230.525 209.676V214.602H228.776ZM243.576 212.098H245.237C244.994 213.654 243.519 214.764 241.567 214.764C239.064 214.764 237.549 213.071 237.549 210.381C237.549 207.708 239.088 205.926 241.494 205.926C243.859 205.926 245.334 207.594 245.334 210.179V210.778H239.315V210.883C239.315 212.366 240.206 213.346 241.607 213.346C242.604 213.346 243.341 212.844 243.576 212.098ZM241.494 207.335C240.271 207.335 239.412 208.267 239.323 209.555H243.584C243.543 208.251 242.717 207.335 241.494 207.335ZM254.504 205.942C256.667 205.942 258.093 207.643 258.093 210.341C258.093 213.038 256.675 214.747 254.536 214.747C253.313 214.747 252.341 214.148 251.855 213.2H251.814V217.421H250.065V206.079H251.758V207.546H251.79C252.292 206.566 253.273 205.942 254.504 205.942ZM254.042 213.265C255.427 213.265 256.294 212.131 256.294 210.341C256.294 208.558 255.427 207.416 254.042 207.416C252.705 207.416 251.806 208.583 251.806 210.341C251.806 212.115 252.697 213.265 254.042 213.265ZM261.94 214.747C260.272 214.747 259.105 213.71 259.105 212.179C259.105 210.689 260.247 209.773 262.273 209.66L264.606 209.522V208.866C264.606 207.918 263.966 207.351 262.896 207.351C261.884 207.351 261.252 207.837 261.098 208.599H259.445C259.543 207.06 260.855 205.926 262.961 205.926C265.027 205.926 266.347 207.019 266.347 208.728V214.602H264.67V213.2H264.63C264.136 214.148 263.058 214.747 261.94 214.747ZM262.426 213.362C263.65 213.362 264.606 212.52 264.606 211.41V210.737L262.508 210.867C261.462 210.94 260.871 211.402 260.871 212.131C260.871 212.876 261.487 213.362 262.426 213.362ZM268.559 204.062H270.317V206.079H271.937V207.465H270.317V212.163C270.317 212.9 270.641 213.233 271.354 213.233C271.532 213.233 271.815 213.216 271.929 213.192V214.577C271.734 214.626 271.346 214.658 270.957 214.658C269.231 214.658 268.559 214.002 268.559 212.358V207.465H267.319V206.079H268.559V204.062ZM274.31 204.702C273.751 204.702 273.298 204.249 273.298 203.698C273.298 203.139 273.751 202.693 274.31 202.693C274.869 202.693 275.315 203.139 275.315 203.698C275.315 204.249 274.869 204.702 274.31 204.702ZM273.436 214.602V206.079H275.185V214.602H273.436ZM282.622 212.098H284.283C284.04 213.654 282.565 214.764 280.613 214.764C278.11 214.764 276.595 213.071 276.595 210.381C276.595 207.708 278.134 205.926 280.54 205.926C282.905 205.926 284.38 207.594 284.38 210.179V210.778H278.361V210.883C278.361 212.366 279.252 213.346 280.653 213.346C281.65 213.346 282.387 212.844 282.622 212.098ZM280.54 207.335C279.317 207.335 278.458 208.267 278.369 209.555H282.63C282.589 208.251 281.763 207.335 280.54 207.335ZM285.741 214.602V206.079H287.409V207.505H287.45C287.912 206.533 288.819 205.934 290.131 205.934C292.011 205.934 293.088 207.133 293.088 209.085V214.602H291.33V209.425C291.33 208.145 290.731 207.44 289.516 207.44C288.284 207.44 287.49 208.315 287.49 209.636V214.602H285.741ZM295.292 204.062H297.049V206.079H298.67V207.465H297.049V212.163C297.049 212.9 297.373 213.233 298.086 213.233C298.265 213.233 298.548 213.216 298.662 213.192V214.577C298.467 214.626 298.078 214.658 297.689 214.658C295.964 214.658 295.292 214.002 295.292 212.358V207.465H294.052V206.079H295.292V204.062Z" fill="#F8F4F4"/>
<path d="M365.753 202.718C369.114 202.718 371.229 205.043 371.229 208.761C371.229 212.479 369.114 214.796 365.753 214.796C362.383 214.796 360.276 212.479 360.276 208.761C360.276 205.043 362.383 202.718 365.753 202.718ZM365.753 204.314C363.533 204.314 362.132 206.031 362.132 208.761C362.132 211.483 363.533 213.2 365.753 213.2C367.972 213.2 369.366 211.483 369.366 208.761C369.366 206.031 367.972 204.314 365.753 204.314ZM380.059 206.08V214.602H378.382V213.16H378.341C377.871 214.181 377.005 214.756 375.7 214.756C373.845 214.756 372.711 213.549 372.711 211.596V206.08H374.461V211.256C374.461 212.552 375.077 213.249 376.284 213.249C377.547 213.249 378.309 212.374 378.309 211.045V206.08H380.059ZM382.303 204.063H384.061V206.08H385.681V207.465H384.061V212.163C384.061 212.901 384.385 213.233 385.097 213.233C385.276 213.233 385.559 213.217 385.673 213.192V214.577C385.478 214.626 385.089 214.658 384.7 214.658C382.975 214.658 382.303 214.002 382.303 212.358V207.465H381.063V206.08H382.303V204.063ZM390.557 217.81C388.548 217.81 387.058 216.74 386.839 215.266H388.597C388.848 215.979 389.626 216.449 390.622 216.449C391.991 216.449 392.801 215.671 392.801 214.505V213.103H392.769C392.291 214.027 391.286 214.634 390.071 214.634C387.933 214.634 386.531 212.965 386.531 210.308C386.531 207.627 387.925 205.942 390.112 205.942C391.319 205.942 392.307 206.55 392.826 207.538H392.858V206.08H394.559V214.448C394.559 216.481 392.988 217.81 390.557 217.81ZM390.541 213.184C391.91 213.184 392.809 212.074 392.809 210.316C392.809 208.567 391.91 207.416 390.541 207.416C389.196 207.416 388.322 208.542 388.322 210.316C388.322 212.099 389.196 213.184 390.541 213.184ZM399.954 214.764C397.516 214.764 395.912 213.087 395.912 210.341C395.912 207.603 397.524 205.926 399.954 205.926C402.385 205.926 403.997 207.603 403.997 210.341C403.997 213.087 402.393 214.764 399.954 214.764ZM399.954 213.322C401.331 213.322 402.214 212.236 402.214 210.341C402.214 208.453 401.323 207.368 399.954 207.368C398.585 207.368 397.694 208.453 397.694 210.341C397.694 212.236 398.585 213.322 399.954 213.322ZM406.281 204.703C405.722 204.703 405.268 204.249 405.268 203.698C405.268 203.139 405.722 202.694 406.281 202.694C406.84 202.694 407.286 203.139 407.286 203.698C407.286 204.249 406.84 204.703 406.281 204.703ZM405.406 214.602V206.08H407.156V214.602H405.406ZM408.946 214.602V206.08H410.615V207.505H410.656C411.117 206.533 412.025 205.934 413.337 205.934C415.216 205.934 416.294 207.133 416.294 209.085V214.602H414.536V209.425C414.536 208.145 413.936 207.441 412.721 207.441C411.49 207.441 410.696 208.316 410.696 209.636V214.602H408.946ZM421.632 217.81C419.623 217.81 418.133 216.74 417.914 215.266H419.672C419.923 215.979 420.701 216.449 421.697 216.449C423.066 216.449 423.876 215.671 423.876 214.505V213.103H423.844C423.366 214.027 422.361 214.634 421.146 214.634C419.008 214.634 417.606 212.965 417.606 210.308C417.606 207.627 418.999 205.942 421.187 205.942C422.394 205.942 423.382 206.55 423.9 207.538H423.933V206.08H425.634V214.448C425.634 216.481 424.062 217.81 421.632 217.81ZM421.616 213.184C422.985 213.184 423.884 212.074 423.884 210.316C423.884 208.567 422.985 207.416 421.616 207.416C420.271 207.416 419.396 208.542 419.396 210.316C419.396 212.099 420.271 213.184 421.616 213.184ZM431.248 204.063H433.006V206.08H434.626V207.465H433.006V212.163C433.006 212.901 433.33 213.233 434.043 213.233C434.221 213.233 434.504 213.217 434.618 213.192V214.577C434.423 214.626 434.035 214.658 433.646 214.658C431.92 214.658 431.248 214.002 431.248 212.358V207.465H430.008V206.08H431.248V204.063ZM439.519 214.764C437.08 214.764 435.476 213.087 435.476 210.341C435.476 207.603 437.089 205.926 439.519 205.926C441.949 205.926 443.561 207.603 443.561 210.341C443.561 213.087 441.957 214.764 439.519 214.764ZM439.519 213.322C440.896 213.322 441.779 212.236 441.779 210.341C441.779 208.453 440.888 207.368 439.519 207.368C438.15 207.368 437.259 208.453 437.259 210.341C437.259 212.236 438.15 213.322 439.519 213.322Z" fill="#F8F4F4"/>
<path d="M503.773 211.461H505.5C505.625 212.578 506.711 213.313 508.195 213.313C509.617 213.313 510.641 212.578 510.641 211.57C510.641 210.695 510.023 210.172 508.562 209.813L507.102 209.461C505.031 208.961 504.07 207.992 504.07 206.422C504.07 204.477 505.766 203.141 508.172 203.141C510.555 203.141 512.188 204.477 512.242 206.422H510.539C510.438 205.297 509.508 204.617 508.148 204.617C506.789 204.617 505.859 205.305 505.859 206.305C505.859 207.102 506.453 207.57 507.906 207.93L509.148 208.235C511.461 208.781 512.422 209.711 512.422 211.36C512.422 213.469 510.742 214.789 508.07 214.789C505.57 214.789 503.883 213.5 503.773 211.461ZM514.281 204.438H515.977V206.383H517.539V207.719H515.977V212.25C515.977 212.961 516.289 213.281 516.977 213.281C517.148 213.281 517.422 213.266 517.531 213.242V214.578C517.344 214.625 516.969 214.656 516.594 214.656C514.93 214.656 514.281 214.024 514.281 212.438V207.719H513.086V206.383H514.281V204.438ZM521.68 213.406C522.859 213.406 523.781 212.594 523.781 211.524V210.875L521.758 211C520.75 211.07 520.18 211.516 520.18 212.219C520.18 212.938 520.773 213.406 521.68 213.406ZM521.211 214.742C519.602 214.742 518.477 213.742 518.477 212.266C518.477 210.828 519.578 209.945 521.531 209.836L523.781 209.703V209.07C523.781 208.156 523.164 207.61 522.133 207.61C521.156 207.61 520.547 208.078 520.398 208.813H518.805C518.898 207.328 520.164 206.235 522.195 206.235C524.188 206.235 525.461 207.289 525.461 208.938V214.602H523.844V213.25H523.805C523.328 214.164 522.289 214.742 521.211 214.742ZM530.602 213.235C531.922 213.235 532.789 212.164 532.789 210.469C532.789 208.781 531.922 207.672 530.602 207.672C529.305 207.672 528.461 208.758 528.461 210.469C528.461 212.188 529.305 213.235 530.602 213.235ZM530.617 217.695C528.68 217.695 527.242 216.664 527.031 215.242H528.727C528.969 215.93 529.719 216.383 530.68 216.383C532 216.383 532.781 215.633 532.781 214.508V213.156H532.75C532.289 214.047 531.32 214.633 530.148 214.633C528.086 214.633 526.734 213.024 526.734 210.461C526.734 207.875 528.078 206.25 530.188 206.25C531.352 206.25 532.305 206.836 532.805 207.789H532.836V206.383H534.477V214.453C534.477 216.414 532.961 217.695 530.617 217.695ZM539.586 207.594C538.406 207.594 537.578 208.492 537.492 209.735H541.602C541.562 208.477 540.766 207.594 539.586 207.594ZM541.594 212.188H543.195C542.961 213.688 541.539 214.758 539.656 214.758C537.242 214.758 535.781 213.125 535.781 210.531C535.781 207.953 537.266 206.235 539.586 206.235C541.867 206.235 543.289 207.844 543.289 210.336V210.914H537.484V211.016C537.484 212.445 538.344 213.391 539.695 213.391C540.656 213.391 541.367 212.906 541.594 212.188Z" fill="#F8F4F4"/>
<g filter="url(#filter1_d_103_73)">
<rect x="93" y="137" width="460" height="43" rx="10.1386" fill="white"/>
<rect x="93.4608" y="137.461" width="459.078" height="42.0783" rx="9.67779" stroke="#E0E0E0" stroke-opacity="0.5" stroke-width="0.921695"/>
</g>
<path d="M107.728 161.695H109.186C109.356 162.951 110.522 163.712 112.199 163.712C113.787 163.712 114.937 162.878 114.937 161.727C114.937 160.747 114.289 160.099 112.669 159.743L111.373 159.459C109.032 158.949 108.019 157.888 108.019 156.227C108.019 154.299 109.72 152.946 112.143 152.946C114.476 152.946 116.161 154.34 116.225 156.324H114.767C114.638 155.044 113.625 154.258 112.102 154.258C110.644 154.258 109.518 154.971 109.518 156.162C109.518 157.086 110.142 157.718 111.738 158.066L113.034 158.349C115.472 158.884 116.436 159.856 116.436 161.509C116.436 163.672 114.735 165.024 112.118 165.024C109.567 165.024 107.865 163.712 107.728 161.695ZM123.516 162.416H124.901C124.658 163.89 123.233 164.976 121.394 164.976C118.98 164.976 117.513 163.299 117.513 160.65C117.513 158.033 119.004 156.259 121.329 156.259C123.605 156.259 125.007 157.912 125.007 160.464V160.998H118.963V161.079C118.963 162.691 119.911 163.753 121.426 163.753C122.495 163.753 123.281 163.21 123.516 162.416ZM121.305 157.483C119.984 157.483 119.061 158.495 118.972 159.897H123.549C123.516 158.487 122.633 157.483 121.305 157.483ZM128.895 164.976C127.218 164.976 126.092 163.963 126.092 162.448C126.092 161.006 127.202 160.099 129.146 159.986L131.56 159.848V159.143C131.56 158.114 130.88 157.499 129.713 157.499C128.628 157.499 127.947 158.009 127.769 158.835H126.408C126.505 157.377 127.753 156.259 129.746 156.259C131.722 156.259 132.97 157.329 132.97 159.006V164.83H131.633V163.38H131.601C131.099 164.344 130.029 164.976 128.895 164.976ZM129.211 163.777C130.54 163.777 131.56 162.845 131.56 161.63V160.942L129.308 161.079C128.174 161.152 127.526 161.655 127.526 162.448C127.526 163.25 128.198 163.777 129.211 163.777ZM134.76 164.83V156.405H136.089V157.782H136.121C136.396 156.851 137.174 156.259 138.162 156.259C138.405 156.259 138.616 156.3 138.73 156.316V157.685C138.616 157.645 138.316 157.604 137.976 157.604C136.883 157.604 136.17 158.39 136.17 159.581V164.83H134.76ZM146.474 159.168H145.097C144.894 158.252 144.181 157.499 142.942 157.499C141.484 157.499 140.496 158.706 140.496 160.618C140.496 162.578 141.5 163.736 142.958 163.736C144.108 163.736 144.862 163.129 145.105 162.116H146.49C146.271 163.793 144.862 164.976 142.95 164.976C140.617 164.976 139.062 163.331 139.062 160.618C139.062 157.961 140.609 156.259 142.934 156.259C145.04 156.259 146.296 157.653 146.474 159.168ZM147.859 164.83V153.141H149.269V157.75H149.301C149.771 156.81 150.694 156.259 151.974 156.259C153.821 156.259 154.939 157.507 154.939 159.386V164.83H153.53V159.646C153.53 158.309 152.857 157.507 151.537 157.507C150.135 157.507 149.269 158.463 149.269 159.921V164.83H147.859ZM164.32 164.976C163.089 164.976 162.125 164.376 161.582 163.404H161.55V164.83H160.205V153.141H161.614V157.815H161.647C162.173 156.851 163.154 156.259 164.344 156.259C166.467 156.259 167.901 157.977 167.901 160.618C167.901 163.267 166.475 164.976 164.32 164.976ZM164.045 157.499C162.619 157.499 161.606 158.746 161.606 160.618C161.606 162.497 162.619 163.736 164.045 163.736C165.535 163.736 166.459 162.546 166.459 160.618C166.459 158.706 165.535 157.499 164.045 157.499ZM169.796 167.981C169.626 167.981 169.343 167.965 169.189 167.933V166.75C169.343 166.782 169.561 166.79 169.74 166.79C170.525 166.79 170.963 166.41 171.287 165.43L171.481 164.838L168.37 156.405H169.877L172.21 163.421H172.235L174.568 156.405H176.05L172.737 165.421C172.016 167.39 171.319 167.981 169.796 167.981ZM180.781 153.141H184.953C187.148 153.141 188.695 154.68 188.695 156.891C188.695 159.111 187.132 160.658 184.937 160.658H182.239V164.83H180.781V153.141ZM182.239 154.437V159.362H184.572C186.241 159.362 187.197 158.447 187.197 156.891C187.197 155.344 186.249 154.437 184.572 154.437H182.239ZM191.887 164.976C190.21 164.976 189.084 163.963 189.084 162.448C189.084 161.006 190.194 160.099 192.138 159.986L194.552 159.848V159.143C194.552 158.114 193.872 157.499 192.705 157.499C191.62 157.499 190.939 158.009 190.761 158.835H189.4C189.497 157.377 190.745 156.259 192.738 156.259C194.714 156.259 195.962 157.329 195.962 159.006V164.83H194.625V163.38H194.593C194.091 164.344 193.021 164.976 191.887 164.976ZM192.203 163.777C193.532 163.777 194.552 162.845 194.552 161.63V160.942L192.3 161.079C191.166 161.152 190.518 161.655 190.518 162.448C190.518 163.25 191.191 163.777 192.203 163.777ZM198.206 154.372H199.615V156.405H201.252V157.564H199.615V162.57C199.615 163.34 199.939 163.688 200.66 163.688C200.822 163.688 201.146 163.664 201.244 163.647V164.83C201.074 164.871 200.685 164.895 200.353 164.895C198.805 164.895 198.206 164.263 198.206 162.643V157.564H196.95V156.405H198.206V154.372ZM203.536 154.907C203.05 154.907 202.653 154.51 202.653 154.024C202.653 153.529 203.05 153.141 203.536 153.141C204.03 153.141 204.419 153.529 204.419 154.024C204.419 154.51 204.03 154.907 203.536 154.907ZM202.831 164.83V156.405H204.241V164.83H202.831ZM211.734 162.416H213.119C212.876 163.89 211.451 164.976 209.612 164.976C207.198 164.976 205.731 163.299 205.731 160.65C205.731 158.033 207.222 156.259 209.547 156.259C211.823 156.259 213.225 157.912 213.225 160.464V160.998H207.182V161.079C207.182 162.691 208.129 163.753 209.644 163.753C210.714 163.753 211.499 163.21 211.734 162.416ZM209.523 157.483C208.202 157.483 207.279 158.495 207.19 159.897H211.767C211.734 158.487 210.851 157.483 209.523 157.483ZM214.651 164.83V156.405H215.979V157.75H216.011C216.481 156.843 217.38 156.259 218.685 156.259C220.532 156.259 221.601 157.45 221.601 159.362V164.83H220.191V159.613C220.191 158.252 219.552 157.507 218.255 157.507C216.927 157.507 216.06 158.447 216.06 159.872V164.83H214.651ZM223.853 154.372H225.263V156.405H226.899V157.564H225.263V162.57C225.263 163.34 225.587 163.688 226.308 163.688C226.47 163.688 226.794 163.664 226.891 163.647V164.83C226.721 164.871 226.332 164.895 226 164.895C224.453 164.895 223.853 164.263 223.853 162.643V157.564H222.597V156.405H223.853V154.372ZM233.469 164.83H232.027V153.141H233.444L239.844 162.319H239.917V153.141H241.359V164.83H239.941L233.542 155.684H233.469V164.83ZM245.628 164.976C243.951 164.976 242.825 163.963 242.825 162.448C242.825 161.006 243.935 160.099 245.879 159.986L248.293 159.848V159.143C248.293 158.114 247.613 157.499 246.446 157.499C245.361 157.499 244.68 158.009 244.502 158.835H243.141C243.238 157.377 244.486 156.259 246.479 156.259C248.455 156.259 249.703 157.329 249.703 159.006V164.83H248.366V163.38H248.334C247.832 164.344 246.762 164.976 245.628 164.976ZM245.944 163.777C247.273 163.777 248.293 162.845 248.293 161.63V160.942L246.041 161.079C244.907 161.152 244.259 161.655 244.259 162.448C244.259 163.25 244.931 163.777 245.944 163.777ZM251.493 164.83V156.405H252.822V157.75H252.854C253.251 156.859 254.11 156.259 255.244 156.259C256.394 156.259 257.245 156.843 257.609 157.863H257.642C258.111 156.859 259.1 156.259 260.282 156.259C261.951 156.259 263.029 157.345 263.029 159.014V164.83H261.619V159.338C261.619 158.187 260.979 157.507 259.869 157.507C258.751 157.507 257.966 158.333 257.966 159.475V164.83H256.556V159.184C256.556 158.171 255.876 157.507 254.831 157.507C253.713 157.507 252.903 158.382 252.903 159.548V164.83H251.493ZM270.417 162.416H271.802C271.559 163.89 270.133 164.976 268.294 164.976C265.88 164.976 264.414 163.299 264.414 160.65C264.414 158.033 265.904 156.259 268.229 156.259C270.506 156.259 271.907 157.912 271.907 160.464V160.998H265.864V161.079C265.864 162.691 266.812 163.753 268.327 163.753C269.396 163.753 270.182 163.21 270.417 162.416ZM268.205 157.483C266.885 157.483 265.961 158.495 265.872 159.897H270.449C270.417 158.487 269.534 157.483 268.205 157.483Z" fill="#828282"/>
<path d="M533 163L537 167M519 157C519 159.122 519.843 161.157 521.343 162.657C522.843 164.157 524.878 165 527 165C529.122 165 531.157 164.157 532.657 162.657C534.157 161.157 535 159.122 535 157C535 154.878 534.157 152.843 532.657 151.343C531.157 149.843 529.122 149 527 149C524.878 149 522.843 149.843 521.343 151.343C519.843 152.843 519 154.878 519 157Z" stroke="#828282" stroke-width="1.5" stroke-linecap="round" stroke-linejoin="round"/>
<g opacity="0.9">
<rect x="509.5" y="230.5" width="24" height="24" rx="5.5" stroke="#FFAC62"/>
<path d="M517.856 240.103C517.856 238.236 519.347 236.917 521.5 236.917C523.578 236.917 525.007 238.12 525.007 239.768C525.007 240.998 524.187 241.921 523.1 243.001L520.693 245.318V245.359H525.144V247H517.973V245.612L521.691 242.03C522.689 241.032 522.997 240.533 522.997 239.85C522.997 239.111 522.348 238.523 521.432 238.523C520.475 238.523 519.771 239.193 519.771 240.103V240.137H517.856V240.103Z" fill="#FFAC62"/>
</g>
<rect opacity="0.8" x="509.5" y="270.5" width="24" height="24" rx="5.5" stroke="#FF3D2C"/>
<path opacity="0.8" d="M521.861 287V285.243H516.953V283.486C517.814 281.846 518.888 280.116 520.911 277.136H523.823V283.589H525.108V285.243H523.823V287H521.861ZM518.765 283.596V283.65H521.902V278.599H521.861C520.426 280.704 519.564 282.051 518.765 283.596Z" fill="#FF3D2C"/>
<g filter="url(#filter2_b_103_73)">
<rect width="72" height="72" rx="8" transform="matrix(-1 0 0 1 565 313)" fill="white" fill-opacity="0.1"/>
<path d="M499.698 331.419C499.698 329.8 501.01 328.488 502.628 328.488H548.442C550.651 328.488 552.442 326.697 552.442 324.488V322.628C552.442 321.01 553.754 319.698 555.372 319.698C556.99 319.698 558.302 321.01 558.302 322.628V374.302C558.302 376.511 556.512 378.302 554.302 378.302H502.628C501.01 378.302 499.698 376.99 499.698 375.372C499.698 373.754 501.01 372.442 502.628 372.442H548.442C550.651 372.442 552.442 370.651 552.442 368.442V344.209C552.442 342 550.641 340.175 548.449 340.444C539.045 341.598 533.734 346.832 528.15 352.546C522.265 358.567 515.163 365.526 502.628 366.473C501.015 366.595 499.698 365.269 499.698 363.651C499.698 362.033 501.015 360.737 502.628 360.597C512.701 359.72 518.198 354.31 523.989 348.385C530.319 341.909 538.054 334.349 552.442 334.349H502.628C501.01 334.349 499.698 333.037 499.698 331.419Z" fill="#85D1BB"/>
<rect x="-0.5" y="0.5" width="71" height="71" rx="7.5" transform="matrix(-1 0 0 1 564 313)" stroke="url(#paint4_linear_103_73)"/>
</g>
<g filter="url(#filter3_b_103_73)">
<rect x="17" y="175" width="80" height="80" rx="8" fill="white" fill-opacity="0.1"/>
<path d="M57 197.803C57.5525 197.803 58.0824 198.028 58.4731 198.429C58.8638 198.829 59.0833 199.373 59.0833 199.94V206.35C59.0833 206.917 58.8638 207.461 58.4731 207.861C58.0824 208.262 57.5525 208.487 57 208.487C56.4475 208.487 55.9176 208.262 55.5269 207.861C55.1362 207.461 54.9167 206.917 54.9167 206.35V199.94C54.9167 199.373 55.1362 198.829 55.5269 198.429C55.9176 198.028 56.4475 197.803 57 197.803ZM39.2167 205.205C39.6073 204.804 40.1372 204.579 40.6896 204.579C41.242 204.579 41.7718 204.804 42.1625 205.205L45.975 209.111C46.1687 209.31 46.3224 209.546 46.4272 209.805C46.532 210.065 46.586 210.343 46.586 210.624C46.586 210.905 46.532 211.183 46.4272 211.443C46.3224 211.703 46.1687 211.939 45.975 212.137C45.7813 212.336 45.5513 212.493 45.2983 212.601C45.0452 212.709 44.7739 212.764 44.5 212.764C44.2261 212.764 43.9548 212.709 43.7017 212.601C43.4487 212.493 43.2187 212.336 43.025 212.137L39.2167 208.227C38.8261 207.826 38.6067 207.282 38.6067 206.716C38.6067 206.149 38.8261 205.606 39.2167 205.205ZM32 223.446C32 222.879 32.2195 222.336 32.6102 221.935C33.0009 221.534 33.5308 221.309 34.0833 221.309H40.6917C41.2442 221.309 41.7741 221.534 42.1648 221.935C42.5555 222.336 42.775 222.879 42.775 223.446C42.775 224.013 42.5555 224.556 42.1648 224.957C41.7741 225.358 41.2442 225.583 40.6917 225.583H34.0833C33.5308 225.583 33.0009 225.358 32.6102 224.957C32.2195 224.556 32 224.013 32 223.446ZM71.5833 223.446C71.5833 222.879 71.8028 222.336 72.1935 221.935C72.5842 221.534 73.1141 221.309 73.6667 221.309H79.9167C80.4692 221.309 80.9991 221.534 81.3898 221.935C81.7805 222.336 82 222.879 82 223.446C82 224.013 81.7805 224.556 81.3898 224.957C80.9991 225.358 80.4692 225.583 79.9167 225.583H73.6667C73.1141 225.583 72.5842 225.358 72.1935 224.957C71.8028 224.556 71.5833 224.013 71.5833 223.446ZM74.725 205.299C74.4364 205.005 74.0502 204.832 73.6434 204.816C73.2365 204.801 72.8387 204.942 72.5292 205.214L55.1125 220.497C54.7067 220.848 54.3772 221.282 54.1453 221.771C53.9133 222.261 53.7842 222.795 53.7661 223.339C53.7481 223.883 53.8415 224.425 54.0405 224.929C54.2394 225.434 54.5394 225.89 54.921 226.268C55.3026 226.646 55.7573 226.938 56.2558 227.125C56.7543 227.311 57.2854 227.388 57.8148 227.351C58.3441 227.314 58.86 227.163 59.329 226.909C59.798 226.654 60.2097 226.301 60.5375 225.873L74.8458 207.509C75.0948 207.189 75.2201 206.786 75.1978 206.378C75.1755 205.97 75.0072 205.584 74.725 205.295V205.299Z" fill="#85D1BB"/>
<path fill-rule="evenodd" clip-rule="evenodd" d="M23.6666 223.446C23.671 218.47 24.734 213.556 26.7815 209.045C28.829 204.534 31.8116 200.536 35.5212 197.33C39.2307 194.124 43.5777 191.787 48.2588 190.482C52.9399 189.178 57.8422 188.936 62.6235 189.776C67.4048 190.615 71.9499 192.515 75.9414 195.342C79.933 198.17 83.2748 201.857 85.7337 206.146C88.1925 210.435 89.7091 215.222 90.1775 220.175C90.646 225.127 90.055 230.125 88.4458 234.819C86.6041 240.174 80.7583 241.665 76.2291 240.161C70.7875 238.353 63.1458 236.267 57 236.267C50.8583 236.267 43.2083 238.353 37.7708 240.161C33.2416 241.665 27.3958 240.174 25.5541 234.819C24.3006 231.165 23.6623 227.319 23.6666 223.446ZM57 193.529C52.3349 193.528 47.7375 194.674 43.5938 196.872C39.45 199.071 35.8808 202.256 33.1857 206.162C30.4905 210.068 28.7481 214.58 28.1046 219.319C27.4611 224.059 27.9353 228.887 29.4875 233.4C30.3333 235.857 33.3333 237.143 36.4875 236.092C41.9875 234.271 50.1583 231.993 57 231.993C63.8416 231.993 72.0167 234.267 77.5125 236.096C80.6666 237.143 83.6666 235.857 84.5125 233.4C86.0646 228.887 86.5389 224.059 85.8954 219.319C85.2519 214.58 83.5094 210.068 80.8143 206.162C78.1191 202.256 74.5499 199.071 70.4062 196.872C66.2624 194.674 61.6651 193.528 57 193.529Z" fill="#85D1BB"/>
<rect x="17.5" y="175.5" width="79" height="79" rx="7.5" stroke="url(#paint5_linear_103_73)"/>
</g>
</g>
<defs>
<filter id="filter0_b_103_73" x="53" y="99" width="540" height="256" filterUnits="userSpaceOnUse" color-interpolation-filters="sRGB">
<feFlood flood-opacity="0" result="BackgroundImageFix"/>
<feGaussianBlur in="BackgroundImageFix" stdDeviation="8"/>
<feComposite in2="SourceAlpha" operator="in" result="effect1_backgroundBlur_103_73"/>
<feBlend mode="normal" in="SourceGraphic" in2="effect1_backgroundBlur_103_73" result="shape"/>
</filter>
<filter id="filter1_d_103_73" x="90.2349" y="135.157" width="465.53" height="48.5302" filterUnits="userSpaceOnUse" color-interpolation-filters="sRGB">
<feFlood flood-opacity="0" result="BackgroundImageFix"/>
<feColorMatrix in="SourceAlpha" type="matrix" values="0 0 0 0 0 0 0 0 0 0 0 0 0 0 0 0 0 0 127 0" result="hardAlpha"/>
<feMorphology radius="0.921695" operator="erode" in="SourceAlpha" result="effect1_dropShadow_103_73"/>
<feOffset dy="0.921695"/>
<feGaussianBlur stdDeviation="1.84339"/>
<feComposite in2="hardAlpha" operator="out"/>
<feColorMatrix type="matrix" values="0 0 0 0 0 0 0 0 0 0 0 0 0 0 0 0 0 0 0.07 0"/>
<feBlend mode="normal" in2="BackgroundImageFix" result="effect1_dropShadow_103_73"/>
<feBlend mode="normal" in="SourceGraphic" in2="effect1_dropShadow_103_73" result="shape"/>
</filter>
<filter id="filter2_b_103_73" x="477" y="297" width="104" height="104" filterUnits="userSpaceOnUse" color-interpolation-filters="sRGB">
<feFlood flood-opacity="0" result="BackgroundImageFix"/>
<feGaussianBlur in="BackgroundImageFix" stdDeviation="8"/>
<feComposite in2="SourceAlpha" operator="in" result="effect1_backgroundBlur_103_73"/>
<feBlend mode="normal" in="SourceGraphic" in2="effect1_backgroundBlur_103_73" result="shape"/>
</filter>
<filter id="filter3_b_103_73" x="1" y="159" width="112" height="112" filterUnits="userSpaceOnUse" color-interpolation-filters="sRGB">
<feFlood flood-opacity="0" result="BackgroundImageFix"/>
<feGaussianBlur in="BackgroundImageFix" stdDeviation="8"/>
<feComposite in2="SourceAlpha" operator="in" result="effect1_backgroundBlur_103_73"/>
<feBlend mode="normal" in="SourceGraphic" in2="effect1_backgroundBlur_103_73" result="shape"/>
</filter>
<radialGradient id="paint0_radial_103_73" cx="0" cy="0" r="1" gradientUnits="userSpaceOnUse" gradientTransform="translate(610 253.5) rotate(180) scale(610 525.824)">
<stop stop-color="#1C765C"/>
<stop offset="1" stop-color="#043424"/>
</radialGradient>
<radialGradient id="paint1_radial_103_73" cx="0" cy="0" r="1" gradientUnits="userSpaceOnUse" gradientTransform="translate(182 196.5) rotate(30.4817) scale(540.154 349.895)">
<stop stop-color="#85D1BB" stop-opacity="0.07"/>
<stop offset="1" stop-color="white" stop-opacity="0.01"/>
</radialGradient>
<radialGradient id="paint2_radial_103_73" cx="0" cy="0" r="1" gradientUnits="userSpaceOnUse" gradientTransform="translate(577 115) rotate(156.205) scale(555.194 1086.13)">
<stop stop-color="white" stop-opacity="0.44"/>
<stop offset="1" stop-color="#E1E1E1" stop-opacity="0.13"/>
</radialGradient>
<radialGradient id="paint3_radial_103_73" cx="0" cy="0" r="1" gradientUnits="userSpaceOnUse" gradientTransform="translate(577 115) rotate(156.205) scale(555.194 1086.13)">
<stop stop-color="#E6F5F5"/>
<stop offset="1" stop-color="#85D1BB" stop-opacity="0.11"/>
</radialGradient>
<linearGradient id="paint4_linear_103_73" x1="0" y1="72" x2="72" y2="0" gradientUnits="userSpaceOnUse">
<stop stop-color="#DAFFF4" stop-opacity="0.34"/>
<stop offset="1" stop-color="#85D1BB" stop-opacity="0"/>
</linearGradient>
<linearGradient id="paint5_linear_103_73" x1="17" y1="175" x2="97" y2="255" gradientUnits="userSpaceOnUse">
<stop stop-color="#DAFFF4" stop-opacity="0.34"/>
<stop offset="1" stop-color="#85D1BB" stop-opacity="0.08"/>
</linearGradient>
<clipPath id="clip0_103_73">
<path d="M0 24C0 10.7452 10.7452 0 24 0H610V507H24C10.7452 507 0 496.255 0 483V24Z" fill="white"/>
</clipPath>
</defs>
</svg>
