<svg width="610" height="674" viewBox="0 0 610 674" fill="none" xmlns="http://www.w3.org/2000/svg">
<path d="M609 64C609 50.7452 598.255 40 585 40H0V638H585C598.255 638 609 627.255 609 614V64Z" fill="url(#paint0_radial_119_2)"/>
<path d="M609 1L609 673M570.937 1L570.937 673M532.875 1L532.875 673M494.812 1L494.812 673M456.75 1L456.75 673M418.688 1L418.687 673M380.625 1L380.625 673M342.563 1L342.562 673M304.5 1L304.5 673M266.438 1L266.437 673M228.375 1L228.375 673M190.313 1L190.312 673M152.25 1L152.25 673M114.188 1L114.187 673M76.125 1L76.125 673M38.0625 1L38.0625 673M4.13895e-05 1L2.6703e-06 673M4.13895e-05 20.1037H609M4.13895e-05 53.8161H609M4.13895e-05 87.5284H609M4.13895e-05 121.241H609M8.01086e-05 154.953H609M8.01086e-05 188.666H609M8.01086e-05 222.378H609M8.01086e-05 256.09H609M8.01086e-05 289.803H609M8.01086e-05 323.515H609M8.01086e-05 357.227H609M8.01086e-05 390.94H609M8.01086e-05 424.652H609M8.01086e-05 458.365H609M8.01086e-05 492.077H609M8.01086e-05 525.789H609M4.13895e-05 559.502H609M4.13895e-05 593.214H609M4.13895e-05 626.926H609M4.13895e-05 660.639H609" stroke="url(#paint1_radial_119_2)" stroke-width="2" stroke-linecap="round" stroke-dasharray="8 8"/>
<g filter="url(#filter0_b_119_2)">
<path d="M37 192C37 178.745 47.7452 168 61 168H539C552.255 168 563 178.745 563 192V424C563 426.209 561.209 428 559 428H41C38.7908 428 37 426.209 37 424V192Z" fill="url(#paint2_radial_119_2)"/>
<path d="M37.5 192C37.5 179.021 48.0213 168.5 61 168.5H539C551.979 168.5 562.5 179.021 562.5 192V424C562.5 425.933 560.933 427.5 559 427.5H41C39.067 427.5 37.5 425.933 37.5 424V192Z" stroke="url(#paint3_radial_119_2)"/>
</g>
<path d="M65.6062 264.394H67.3722C67.5342 265.552 68.636 266.249 70.1913 266.249C71.6738 266.249 72.735 265.487 72.735 264.442C72.735 263.535 72.1193 262.968 70.5558 262.628L69.284 262.36C66.9429 261.866 65.8817 260.781 65.8817 259.096C65.8817 257.095 67.6396 255.718 70.1265 255.718C72.6054 255.718 74.2984 257.119 74.3551 259.16H72.5973C72.4838 257.986 71.5198 257.265 70.1022 257.265C68.7332 257.265 67.7287 257.929 67.7287 258.998C67.7287 259.849 68.3281 260.416 69.843 260.74L71.1229 261.007C73.5694 261.526 74.5739 262.506 74.5739 264.207C74.5739 266.411 72.8403 267.796 70.1184 267.796C67.4775 267.796 65.7197 266.476 65.6062 264.394ZM77.3119 267.691C76.7206 267.691 76.2507 267.221 76.2507 266.629C76.2507 266.038 76.7206 265.568 77.3119 265.568C77.9033 265.568 78.3732 266.038 78.3732 266.629C78.3732 267.221 77.9033 267.691 77.3119 267.691ZM82.3345 267.602H80.5685V255.912H82.2129L88.2724 264.531H88.3372V255.912H90.1032V267.602H88.4668L82.4074 258.99H82.3345V267.602ZM95.717 267.764C93.2787 267.764 91.6747 266.087 91.6747 263.341C91.6747 260.602 93.2868 258.926 95.717 258.926C98.1473 258.926 99.7593 260.602 99.7593 263.341C99.7593 266.087 98.1554 267.764 95.717 267.764ZM95.717 266.322C97.0942 266.322 97.9772 265.236 97.9772 263.341C97.9772 261.453 97.0861 260.368 95.717 260.368C94.348 260.368 93.4569 261.453 93.4569 263.341C93.4569 265.236 94.348 266.322 95.717 266.322Z" fill="#F8F4F4"/>
<path d="M67.7458 335.024C67.7458 332.747 69.618 331.055 72.1203 331.055C74.5235 331.055 76.1797 332.693 76.1797 334.664C76.1797 336.095 75.5226 337.166 73.1374 339.614L70.0501 342.783V342.819H76.3957V344.259H67.8268V343.143L72.3993 338.372C74.1545 336.545 74.5595 335.843 74.5595 334.763C74.5595 333.485 73.6054 332.468 72.1203 332.468C70.5181 332.468 69.312 333.566 69.312 335.024H67.7458Z" fill="white"/>
<path d="M70.2391 382.006V380.637H71.7962C73.2904 380.637 74.3345 379.674 74.3345 378.36C74.3345 377.073 73.4614 376.2 71.8142 376.2C70.3201 376.2 69.33 377.055 69.186 378.414H67.6288C67.8088 376.209 69.447 374.796 71.8863 374.796C74.2085 374.796 75.9637 376.191 75.9637 378.144C75.9637 379.773 74.9196 380.943 73.2994 381.231V381.267C75.2616 381.385 76.5217 382.6 76.5217 384.427C76.5217 386.659 74.4875 388.216 71.9403 388.216C69.222 388.216 67.4848 386.713 67.3678 384.562H68.9249C69.069 385.894 70.1761 386.812 71.9223 386.812C73.6414 386.812 74.8746 385.84 74.8746 384.481C74.8746 382.951 73.7224 382.006 71.8682 382.006H70.2391Z" fill="white"/>
<path d="M131.454 344.259H129.833V338.669L125.225 331.27H127.07L130.617 337.103H130.671L134.217 331.27H136.062L131.454 338.669V344.259ZM138.591 343.089C140.068 343.089 141.202 342.054 141.202 340.703V339.938L138.699 340.091C137.439 340.172 136.719 340.73 136.719 341.613C136.719 342.504 137.466 343.089 138.591 343.089ZM138.24 344.421C136.377 344.421 135.126 343.296 135.126 341.613C135.126 340.01 136.359 339.002 138.519 338.876L141.202 338.723V337.94C141.202 336.797 140.446 336.113 139.149 336.113C137.943 336.113 137.187 336.68 136.989 337.598H135.477C135.585 335.978 136.971 334.736 139.185 334.736C141.382 334.736 142.768 335.924 142.768 337.787V344.259H141.283V342.648H141.247C140.689 343.719 139.5 344.421 138.24 344.421ZM144.595 337.481C144.595 335.879 146.026 334.736 148.087 334.736C150.023 334.736 151.445 335.888 151.517 337.472H150.023C149.915 336.572 149.185 336.014 148.033 336.014C146.89 336.014 146.134 336.581 146.134 337.4C146.134 338.048 146.629 338.48 147.691 338.75L149.14 339.101C151.031 339.578 151.715 340.262 151.715 341.64C151.715 343.269 150.176 344.421 147.988 344.421C145.936 344.421 144.505 343.305 144.343 341.649H145.909C146.08 342.621 146.818 343.143 148.087 343.143C149.356 343.143 150.14 342.603 150.14 341.757C150.14 341.09 149.753 340.73 148.699 340.451L147.052 340.028C145.405 339.605 144.595 338.759 144.595 337.481ZM153.425 344.259V331.27H154.991V336.392H155.027C155.549 335.348 156.575 334.736 157.997 334.736C160.05 334.736 161.292 336.122 161.292 338.21V344.259H159.726V338.498C159.726 337.013 158.978 336.122 157.511 336.122C155.954 336.122 154.991 337.184 154.991 338.804V344.259H153.425ZM167.16 344.421C164.568 344.421 162.822 342.558 162.822 339.578C162.822 336.59 164.568 334.736 167.16 334.736C169.744 334.736 171.49 336.59 171.49 339.578C171.49 342.558 169.744 344.421 167.16 344.421ZM167.16 343.044C168.816 343.044 169.897 341.784 169.897 339.578C169.897 337.373 168.816 336.113 167.16 336.113C165.504 336.113 164.415 337.373 164.415 339.578C164.415 341.784 165.504 343.044 167.16 343.044ZM176.62 344.421C174.235 344.421 172.615 342.513 172.615 339.578C172.615 336.644 174.226 334.736 176.584 334.736C177.925 334.736 179.006 335.393 179.564 336.419H179.6V331.27H181.166V344.259H179.672V342.675H179.645C179.042 343.755 177.97 344.421 176.62 344.421ZM176.917 336.113C175.261 336.113 174.217 337.463 174.217 339.578C174.217 341.703 175.261 343.044 176.917 343.044C178.528 343.044 179.609 341.676 179.609 339.578C179.609 337.49 178.528 336.113 176.917 336.113ZM186.368 343.089C187.844 343.089 188.979 342.054 188.979 340.703V339.938L186.476 340.091C185.216 340.172 184.496 340.73 184.496 341.613C184.496 342.504 185.243 343.089 186.368 343.089ZM186.017 344.421C184.154 344.421 182.903 343.296 182.903 341.613C182.903 340.01 184.136 339.002 186.296 338.876L188.979 338.723V337.94C188.979 336.797 188.222 336.113 186.926 336.113C185.72 336.113 184.964 336.68 184.766 337.598H183.254C183.362 335.978 184.748 334.736 186.962 334.736C189.159 334.736 190.545 335.924 190.545 337.787V344.259H189.06V342.648H189.024C188.466 343.719 187.277 344.421 186.017 344.421ZM206.926 344.259H205.306V338.345H198.178V344.259H196.557V331.27H198.178V336.887H205.306V331.27H206.926V344.259ZM210.527 344.349C209.951 344.349 209.501 343.899 209.501 343.323C209.501 342.747 209.951 342.297 210.527 342.297C211.103 342.297 211.553 342.747 211.553 343.323C211.553 343.899 211.103 344.349 210.527 344.349ZM215.207 344.349C214.631 344.349 214.181 343.899 214.181 343.323C214.181 342.747 214.631 342.297 215.207 342.297C215.783 342.297 216.233 342.747 216.233 343.323C216.233 343.899 215.783 344.349 215.207 344.349ZM219.888 344.349C219.312 344.349 218.862 343.899 218.862 343.323C218.862 342.747 219.312 342.297 219.888 342.297C220.464 342.297 220.914 342.747 220.914 343.323C220.914 343.899 220.464 344.349 219.888 344.349Z" fill="#8DFFDE"/>
<path d="M132.168 388.234C128.281 388.234 125.82 385.412 125.82 380.949C125.82 376.525 128.311 373.674 132.168 373.674C135.234 373.674 137.568 375.539 138.018 378.352H136.24C135.791 376.506 134.18 375.295 132.168 375.295C129.414 375.295 127.627 377.521 127.627 380.949C127.627 384.406 129.395 386.613 132.178 386.613C134.248 386.613 135.732 385.617 136.24 383.898H138.018C137.373 386.682 135.283 388.234 132.168 388.234ZM143.184 386.73C144.785 386.73 146.016 385.607 146.016 384.143V383.312L143.301 383.479C141.934 383.566 141.152 384.172 141.152 385.129C141.152 386.096 141.963 386.73 143.184 386.73ZM142.803 388.176C140.781 388.176 139.424 386.955 139.424 385.129C139.424 383.391 140.762 382.297 143.105 382.16L146.016 381.994V381.145C146.016 379.904 145.195 379.162 143.789 379.162C142.48 379.162 141.66 379.777 141.445 380.773H139.805C139.922 379.016 141.426 377.668 143.828 377.668C146.211 377.668 147.715 378.957 147.715 380.979V388H146.104V386.252H146.064C145.459 387.414 144.17 388.176 142.803 388.176ZM149.873 388V377.844H151.475V379.504H151.514C151.846 378.381 152.783 377.668 153.975 377.668C154.268 377.668 154.521 377.717 154.658 377.736V379.387C154.521 379.338 154.16 379.289 153.75 379.289C152.432 379.289 151.572 380.236 151.572 381.672V388H149.873ZM159.629 379.143C158.037 379.143 156.924 380.363 156.816 382.053H162.334C162.295 380.354 161.23 379.143 159.629 379.143ZM162.295 385.09H163.965C163.672 386.867 161.953 388.176 159.736 388.176C156.826 388.176 155.059 386.154 155.059 382.961C155.059 379.807 156.855 377.668 159.658 377.668C162.402 377.668 164.092 379.66 164.092 382.736V383.381H156.807V383.479C156.807 385.422 157.949 386.701 159.775 386.701C161.064 386.701 162.012 386.047 162.295 385.09ZM181.426 388H179.668V381.584H171.934V388H170.176V373.908H171.934V380.002H179.668V373.908H181.426V388ZM188.105 388.176C185.293 388.176 183.398 386.154 183.398 382.922C183.398 379.68 185.293 377.668 188.105 377.668C190.908 377.668 192.803 379.68 192.803 382.922C192.803 386.154 190.908 388.176 188.105 388.176ZM188.105 386.682C189.902 386.682 191.074 385.314 191.074 382.922C191.074 380.529 189.902 379.162 188.105 379.162C186.309 379.162 185.127 380.529 185.127 382.922C185.127 385.314 186.309 386.682 188.105 386.682ZM194.346 380.646C194.346 378.908 195.898 377.668 198.135 377.668C200.234 377.668 201.777 378.918 201.855 380.637H200.234C200.117 379.66 199.326 379.055 198.076 379.055C196.836 379.055 196.016 379.67 196.016 380.559C196.016 381.262 196.553 381.73 197.705 382.023L199.277 382.404C201.328 382.922 202.07 383.664 202.07 385.158C202.07 386.926 200.4 388.176 198.027 388.176C195.801 388.176 194.248 386.965 194.072 385.168H195.771C195.957 386.223 196.758 386.789 198.135 386.789C199.512 386.789 200.361 386.203 200.361 385.285C200.361 384.562 199.941 384.172 198.799 383.869L197.012 383.41C195.225 382.951 194.346 382.033 194.346 380.646ZM205.273 388.098C204.648 388.098 204.16 387.609 204.16 386.984C204.16 386.359 204.648 385.871 205.273 385.871C205.898 385.871 206.387 386.359 206.387 386.984C206.387 387.609 205.898 388.098 205.273 388.098ZM210.352 388.098C209.727 388.098 209.238 387.609 209.238 386.984C209.238 386.359 209.727 385.871 210.352 385.871C210.977 385.871 211.465 386.359 211.465 386.984C211.465 387.609 210.977 388.098 210.352 388.098ZM215.43 388.098C214.805 388.098 214.316 387.609 214.316 386.984C214.316 386.359 214.805 385.871 215.43 385.871C216.055 385.871 216.543 386.359 216.543 386.984C216.543 387.609 216.055 388.098 215.43 388.098Z" fill="#8DFFDE"/>
<path d="M136.135 267.602H134.32V262.425H128.318V267.602H126.503V255.912H128.318V260.854H134.32V255.912H136.135V267.602ZM141.733 267.764C139.294 267.764 137.69 266.087 137.69 263.341C137.69 260.602 139.302 258.926 141.733 258.926C144.163 258.926 145.775 260.602 145.775 263.341C145.775 266.087 144.171 267.764 141.733 267.764ZM141.733 266.322C143.11 266.322 143.993 265.236 143.993 263.341C143.993 261.453 143.102 260.368 141.733 260.368C140.364 260.368 139.472 261.453 139.472 263.341C139.472 265.236 140.364 266.322 141.733 266.322ZM146.974 261.494C146.974 259.971 148.319 258.926 150.311 258.926C152.207 258.926 153.535 259.987 153.592 261.502H151.948C151.867 260.732 151.243 260.254 150.263 260.254C149.315 260.254 148.683 260.716 148.683 261.388C148.683 261.915 149.104 262.271 149.987 262.49L151.421 262.822C153.139 263.235 153.787 263.883 153.787 265.139C153.787 266.694 152.337 267.764 150.247 267.764C148.229 267.764 146.893 266.719 146.755 265.155H148.489C148.626 265.973 149.258 266.427 150.328 266.427C151.381 266.427 152.029 265.989 152.029 265.301C152.029 264.758 151.705 264.458 150.814 264.232L149.291 263.859C147.751 263.486 146.974 262.684 146.974 261.494ZM159.587 258.942C161.75 258.942 163.175 260.643 163.175 263.341C163.175 266.038 161.758 267.747 159.619 267.747C158.396 267.747 157.424 267.148 156.938 266.2H156.897V270.421H155.148V259.079H156.841V260.546H156.873C157.375 259.566 158.355 258.942 159.587 258.942ZM159.125 266.265C160.51 266.265 161.377 265.131 161.377 263.341C161.377 261.558 160.51 260.416 159.125 260.416C157.788 260.416 156.889 261.583 156.889 263.341C156.889 265.115 157.78 266.265 159.125 266.265ZM164.585 267.602V259.079H166.335V267.602H164.585ZM165.46 257.832C164.901 257.832 164.447 257.386 164.447 256.836C164.447 256.277 164.901 255.831 165.46 255.831C166.027 255.831 166.481 256.277 166.481 256.836C166.481 257.386 166.027 257.832 165.46 257.832ZM168.635 257.062H170.393V259.079H172.013V260.465H170.393V265.163C170.393 265.9 170.717 266.233 171.43 266.233C171.608 266.233 171.892 266.216 172.005 266.192V267.577C171.811 267.626 171.422 267.658 171.033 267.658C169.308 267.658 168.635 267.002 168.635 265.358V260.465H167.396V259.079H168.635V257.062ZM176.307 266.362C177.53 266.362 178.486 265.52 178.486 264.41V263.737L176.388 263.867C175.343 263.94 174.752 264.402 174.752 265.131C174.752 265.876 175.367 266.362 176.307 266.362ZM175.821 267.747C174.152 267.747 172.986 266.71 172.986 265.179C172.986 263.689 174.128 262.773 176.153 262.66L178.486 262.522V261.866C178.486 260.918 177.846 260.351 176.777 260.351C175.764 260.351 175.132 260.837 174.978 261.599H173.326C173.423 260.06 174.735 258.926 176.842 258.926C178.907 258.926 180.228 260.019 180.228 261.728V267.602H178.551V266.2H178.51C178.016 267.148 176.939 267.747 175.821 267.747ZM181.994 267.602V255.912H183.743V267.602H181.994ZM190.888 267.602H189.122V255.912H190.767L196.826 264.531H196.891V255.912H198.657V267.602H197.021L190.961 258.99H190.888V267.602ZM203.364 266.362C204.587 266.362 205.543 265.52 205.543 264.41V263.737L203.445 263.867C202.4 263.94 201.808 264.402 201.808 265.131C201.808 265.876 202.424 266.362 203.364 266.362ZM202.878 267.747C201.209 267.747 200.042 266.71 200.042 265.179C200.042 263.689 201.185 262.773 203.21 262.66L205.543 262.522V261.866C205.543 260.918 204.903 260.351 203.834 260.351C202.821 260.351 202.189 260.837 202.035 261.599H200.383C200.48 260.06 201.792 258.926 203.898 258.926C205.964 258.926 207.285 260.019 207.285 261.728V267.602H205.608V266.2H205.567C205.073 267.148 203.996 267.747 202.878 267.747ZM208.986 267.602V259.079H210.654V260.513H210.695C211.076 259.566 211.967 258.934 213.117 258.934C214.3 258.934 215.159 259.541 215.499 260.602H215.539C215.977 259.566 216.981 258.934 218.196 258.934C219.881 258.934 220.983 260.052 220.983 261.745V267.602H219.225V262.166C219.225 261.064 218.634 260.432 217.597 260.432C216.56 260.432 215.839 261.202 215.839 262.279V267.602H214.122V262.036C214.122 261.056 213.498 260.432 212.51 260.432C211.473 260.432 210.735 261.242 210.735 262.336V267.602H208.986ZM226.24 260.335C225.017 260.335 224.159 261.267 224.069 262.555H228.33C228.29 261.251 227.464 260.335 226.24 260.335ZM228.322 265.098H229.983C229.74 266.654 228.266 267.764 226.313 267.764C223.81 267.764 222.295 266.071 222.295 263.381C222.295 260.708 223.835 258.926 226.24 258.926C228.606 258.926 230.08 260.594 230.08 263.179V263.778H224.061V263.883C224.061 265.366 224.952 266.346 226.354 266.346C227.35 266.346 228.087 265.844 228.322 265.098Z" fill="#F8F4F4"/>
<path d="M262.233 267.602L259.579 262.99H258.136V267.602H256.244V256.071H260.226C261.111 256.071 261.857 256.226 262.466 256.536C263.085 256.846 263.544 257.26 263.843 257.78C264.152 258.3 264.307 258.881 264.307 259.522C264.307 260.274 264.086 260.96 263.644 261.579C263.212 262.188 262.543 262.602 261.636 262.824L264.49 267.602H262.233ZM258.136 261.48H260.226C260.934 261.48 261.465 261.303 261.819 260.949C262.184 260.595 262.366 260.119 262.366 259.522C262.366 258.925 262.189 258.46 261.835 258.129C261.481 257.786 260.945 257.614 260.226 257.614H258.136V261.48ZM275.105 262.807C275.105 263.15 275.083 263.46 275.039 263.736H268.054C268.109 264.466 268.38 265.052 268.867 265.495C269.354 265.937 269.951 266.158 270.659 266.158C271.676 266.158 272.395 265.733 272.815 264.881H274.856C274.58 265.721 274.076 266.413 273.346 266.955C272.627 267.486 271.732 267.751 270.659 267.751C269.785 267.751 269 267.558 268.303 267.17C267.617 266.772 267.075 266.219 266.677 265.511C266.29 264.792 266.096 263.963 266.096 263.023C266.096 262.083 266.284 261.259 266.66 260.551C267.048 259.832 267.584 259.279 268.27 258.892C268.966 258.505 269.763 258.311 270.659 258.311C271.521 258.311 272.29 258.499 272.965 258.875C273.639 259.251 274.165 259.782 274.541 260.468C274.917 261.143 275.105 261.922 275.105 262.807ZM273.131 262.21C273.12 261.513 272.871 260.954 272.384 260.534C271.897 260.114 271.295 259.904 270.576 259.904C269.923 259.904 269.365 260.114 268.9 260.534C268.436 260.943 268.159 261.502 268.071 262.21H273.131ZM280.799 260.003H279.106V267.602H277.198V260.003H276.12V258.46H277.198V257.813C277.198 256.763 277.475 255.999 278.028 255.524C278.592 255.037 279.471 254.794 280.666 254.794V256.37C280.091 256.37 279.687 256.481 279.455 256.702C279.223 256.912 279.106 257.282 279.106 257.813V258.46H280.799V260.003ZM290.853 262.807C290.853 263.15 290.831 263.46 290.787 263.736H283.802C283.857 264.466 284.128 265.052 284.615 265.495C285.102 265.937 285.699 266.158 286.407 266.158C287.424 266.158 288.143 265.733 288.563 264.881H290.604C290.328 265.721 289.824 266.413 289.094 266.955C288.375 267.486 287.48 267.751 286.407 267.751C285.533 267.751 284.748 267.558 284.051 267.17C283.365 266.772 282.823 266.219 282.425 265.511C282.038 264.792 281.844 263.963 281.844 263.023C281.844 262.083 282.032 261.259 282.408 260.551C282.796 259.832 283.332 259.279 284.018 258.892C284.714 258.505 285.511 258.311 286.407 258.311C287.269 258.311 288.038 258.499 288.713 258.875C289.387 259.251 289.913 259.782 290.289 260.468C290.665 261.143 290.853 261.922 290.853 262.807ZM288.879 262.21C288.868 261.513 288.619 260.954 288.132 260.534C287.645 260.114 287.043 259.904 286.324 259.904C285.671 259.904 285.113 260.114 284.648 260.534C284.184 260.943 283.907 261.502 283.819 262.21H288.879ZM294.606 259.788C294.882 259.323 295.247 258.964 295.701 258.709C296.165 258.444 296.713 258.311 297.343 258.311V260.269H296.862C296.121 260.269 295.557 260.457 295.17 260.833C294.794 261.209 294.606 261.861 294.606 262.79V267.602H292.714V258.46H294.606V259.788ZM300.973 259.788C301.249 259.323 301.614 258.964 302.068 258.709C302.532 258.444 303.08 258.311 303.71 258.311V260.269H303.229C302.488 260.269 301.924 260.457 301.537 260.833C301.161 261.209 300.973 261.861 300.973 262.79V267.602H299.081V258.46H300.973V259.788ZM304.818 262.99C304.818 262.072 305.006 261.259 305.382 260.551C305.769 259.843 306.289 259.295 306.942 258.908C307.606 258.51 308.335 258.311 309.132 258.311C309.851 258.311 310.476 258.455 311.007 258.742C311.549 259.019 311.98 259.367 312.301 259.788V258.46H314.209V267.602H312.301V266.241C311.98 266.673 311.543 267.032 310.99 267.32C310.437 267.607 309.807 267.751 309.099 267.751C308.313 267.751 307.594 267.552 306.942 267.154C306.289 266.745 305.769 266.18 305.382 265.462C305.006 264.732 304.818 263.908 304.818 262.99ZM312.301 263.023C312.301 262.392 312.168 261.845 311.902 261.38C311.648 260.916 311.311 260.562 310.89 260.319C310.47 260.075 310.017 259.954 309.53 259.954C309.043 259.954 308.59 260.075 308.17 260.319C307.749 260.551 307.406 260.899 307.141 261.364C306.887 261.817 306.759 262.359 306.759 262.99C306.759 263.62 306.887 264.173 307.141 264.649C307.406 265.124 307.749 265.489 308.17 265.744C308.601 265.987 309.054 266.109 309.53 266.109C310.017 266.109 310.47 265.987 310.89 265.744C311.311 265.5 311.648 265.146 311.902 264.682C312.168 264.206 312.301 263.653 312.301 263.023ZM318.584 255.325V267.602H316.693V255.325H318.584ZM324.385 267.751C323.666 267.751 323.019 267.624 322.444 267.369C321.88 267.104 321.432 266.75 321.1 266.308C320.769 265.854 320.592 265.351 320.569 264.798H322.527C322.56 265.185 322.743 265.511 323.075 265.777C323.417 266.031 323.843 266.158 324.352 266.158C324.883 266.158 325.292 266.059 325.58 265.86C325.878 265.65 326.028 265.384 326.028 265.063C326.028 264.721 325.862 264.466 325.53 264.3C325.209 264.134 324.695 263.952 323.987 263.753C323.301 263.565 322.743 263.382 322.311 263.205C321.88 263.028 321.504 262.757 321.183 262.392C320.874 262.027 320.719 261.546 320.719 260.949C320.719 260.462 320.863 260.02 321.15 259.622C321.438 259.212 321.847 258.892 322.378 258.659C322.92 258.427 323.539 258.311 324.236 258.311C325.276 258.311 326.111 258.577 326.741 259.107C327.383 259.627 327.725 260.341 327.77 261.248H325.878C325.845 260.838 325.679 260.512 325.381 260.269C325.082 260.025 324.678 259.904 324.17 259.904C323.672 259.904 323.29 259.998 323.025 260.186C322.759 260.374 322.627 260.623 322.627 260.932C322.627 261.176 322.715 261.38 322.892 261.546C323.069 261.712 323.285 261.845 323.539 261.944C323.794 262.033 324.17 262.149 324.667 262.293C325.331 262.47 325.873 262.652 326.293 262.84C326.725 263.017 327.095 263.283 327.405 263.637C327.714 263.991 327.875 264.461 327.886 265.047C327.886 265.567 327.742 266.031 327.454 266.44C327.167 266.85 326.758 267.17 326.227 267.403C325.707 267.635 325.093 267.751 324.385 267.751Z" fill="#F8F4F4"/>
<g filter="url(#filter1_b_119_2)">
<rect x="54" y="281" width="311" height="32" rx="8" fill="url(#paint4_linear_119_2)" fill-opacity="0.2"/>
<path d="M72.1949 304.626V293.357H72.1589L68.7206 295.751V294.122L72.1769 291.638H73.7611V304.626H72.1949Z" fill="white"/>
<path d="M125.639 300.131H127.268C127.421 301.535 128.753 302.462 130.608 302.462C132.363 302.462 133.641 301.535 133.641 300.257C133.641 299.159 132.876 298.484 131.13 298.034L129.464 297.602C127.07 296.99 126.008 295.937 126.008 294.173C126.008 292.012 127.898 290.5 130.599 290.5C133.182 290.5 135.054 292.03 135.126 294.209H133.506C133.362 292.813 132.237 291.958 130.545 291.958C128.861 291.958 127.691 292.831 127.691 294.101C127.691 295.082 128.411 295.667 130.176 296.126L131.535 296.486C134.226 297.161 135.315 298.196 135.315 300.059C135.315 302.435 133.443 303.921 130.455 303.921C127.7 303.921 125.792 302.426 125.639 300.131ZM137.466 292.084H139.032V294.344H140.851V295.631H139.032V301.193C139.032 302.048 139.392 302.435 140.194 302.435C140.374 302.435 140.734 302.408 140.842 302.39V303.705C140.653 303.75 140.221 303.777 139.852 303.777C138.132 303.777 137.466 303.075 137.466 301.274V295.631H136.071V294.344H137.466V292.084ZM145.666 300.653H147.277C147.313 301.751 148.15 302.516 149.329 302.516C150.761 302.516 151.535 301.661 151.535 300.077V290.716H153.155V300.086C153.155 302.552 151.733 304.011 149.338 304.011C147.178 304.011 145.666 302.624 145.666 300.653ZM159.312 303.867C156.719 303.867 154.973 302.003 154.973 299.024C154.973 296.036 156.719 294.182 159.312 294.182C161.895 294.182 163.641 296.036 163.641 299.024C163.641 302.003 161.895 303.867 159.312 303.867ZM159.312 302.489C160.968 302.489 162.048 301.229 162.048 299.024C162.048 296.819 160.968 295.559 159.312 295.559C157.655 295.559 156.566 296.819 156.566 299.024C156.566 301.229 157.655 302.489 159.312 302.489ZM165.306 303.705V290.716H166.872V295.838H166.908C167.43 294.794 168.456 294.182 169.879 294.182C171.931 294.182 173.173 295.568 173.173 297.656V303.705H171.607V297.944C171.607 296.459 170.86 295.568 169.393 295.568C167.835 295.568 166.872 296.63 166.872 298.25V303.705H165.306ZM175.162 303.705V294.344H176.638V295.838H176.674C177.196 294.83 178.195 294.182 179.645 294.182C181.697 294.182 182.885 295.505 182.885 297.629V303.705H181.319V297.908C181.319 296.396 180.608 295.568 179.168 295.568C177.691 295.568 176.728 296.612 176.728 298.196V303.705H175.162ZM186.206 303.795C185.63 303.795 185.18 303.345 185.18 302.768C185.18 302.192 185.63 301.742 186.206 301.742C186.782 301.742 187.232 302.192 187.232 302.768C187.232 303.345 186.782 303.795 186.206 303.795ZM190.887 303.795C190.311 303.795 189.861 303.345 189.861 302.768C189.861 302.192 190.311 301.742 190.887 301.742C191.463 301.742 191.913 302.192 191.913 302.768C191.913 303.345 191.463 303.795 190.887 303.795Z" fill="#8DFFDE"/>
<path d="M260.523 303.07H259.453V302.039C257.227 301.891 255.797 300.672 255.789 298.867H257.445C257.523 299.828 258.273 300.492 259.453 300.625V296.93L258.758 296.75C257.008 296.312 256.047 295.266 256.047 293.75C256.047 291.969 257.336 290.781 259.453 290.586V289.5H260.523V290.586C262.562 290.758 263.891 291.992 263.938 293.719H262.305C262.273 292.836 261.562 292.141 260.523 292.008V295.5L261.25 295.664C263.188 296.148 264.133 297.125 264.133 298.75C264.133 300.648 262.812 301.844 260.523 302.031V303.07ZM262.477 298.906C262.477 297.977 261.867 297.414 260.523 297.133V300.648C261.766 300.578 262.477 299.938 262.477 298.906ZM257.719 293.633C257.719 294.477 258.328 295.039 259.453 295.273V292.008C258.453 292.062 257.719 292.734 257.719 293.633ZM268.648 302V292.461H268.609L265.664 294.555V292.836L268.633 290.727H270.359V302H268.648ZM277.352 302.219C275.688 302.219 274.352 301.367 273.617 299.844C273.156 298.945 272.922 297.836 272.922 296.516C272.922 292.742 274.609 290.508 277.43 290.508C279.422 290.508 280.969 291.703 281.312 293.5H279.562C279.289 292.578 278.445 291.977 277.414 291.977C275.641 291.977 274.609 293.586 274.602 296.422H274.633C275.125 295.328 276.32 294.594 277.727 294.594C279.875 294.594 281.469 296.18 281.469 298.32C281.469 300.578 279.742 302.219 277.352 302.219ZM277.336 300.742C278.664 300.742 279.727 299.695 279.727 298.375C279.727 297.008 278.734 296.023 277.352 296.023C275.977 296.023 274.953 297.008 274.953 298.344C274.953 299.68 275.992 300.742 277.336 300.742ZM284.047 304.32H282.703L283.406 300.195H285.109L284.047 304.32ZM287 294.031C287 292 288.633 290.516 290.875 290.516C293.023 290.516 294.625 291.883 294.625 293.672C294.625 294.984 293.922 295.961 292.273 297.648L289.453 300.484V300.523H294.805V302H287.094V300.812L291.164 296.664C292.539 295.234 292.898 294.641 292.898 293.758C292.898 292.758 291.992 291.961 290.82 291.961C289.586 291.961 288.656 292.852 288.656 294.023V294.047H287V294.031ZM301.391 302V299.773H295.75V298.242C296.719 296.422 298 294.398 300.539 290.727H303.07V298.305H304.617V299.773H303.07V302H301.391ZM297.383 298.289V298.328H301.406V292.078H301.375C299.422 294.898 298.281 296.656 297.383 298.289ZM310.078 302.211C307.375 302.211 305.773 299.945 305.773 296.352C305.773 292.781 307.391 290.516 310.078 290.516C312.773 290.516 314.367 292.773 314.367 296.344C314.367 299.938 312.781 302.211 310.078 302.211ZM310.078 300.742C311.688 300.742 312.602 299.078 312.602 296.352C312.602 293.664 311.672 291.984 310.078 291.984C308.484 291.984 307.547 293.672 307.547 296.352C307.547 299.07 308.469 300.742 310.078 300.742Z" fill="#F8F4F4"/>
</g>
<path d="M260.523 345.07H259.453V344.039C257.227 343.891 255.797 342.672 255.789 340.867H257.445C257.523 341.828 258.273 342.492 259.453 342.625V338.93L258.758 338.75C257.008 338.312 256.047 337.266 256.047 335.75C256.047 333.969 257.336 332.781 259.453 332.586V331.5H260.523V332.586C262.562 332.758 263.891 333.992 263.938 335.719H262.305C262.273 334.836 261.562 334.141 260.523 334.008V337.5L261.25 337.664C263.188 338.148 264.133 339.125 264.133 340.75C264.133 342.648 262.812 343.844 260.523 344.031V345.07ZM262.477 340.906C262.477 339.977 261.867 339.414 260.523 339.133V342.648C261.766 342.578 262.477 341.938 262.477 340.906ZM257.719 335.633C257.719 336.477 258.328 337.039 259.453 337.273V334.008C258.453 334.062 257.719 334.734 257.719 335.633ZM268.648 344V334.461H268.609L265.664 336.555V334.836L268.633 332.727H270.359V344H268.648ZM273.016 336.031C273.016 334 274.648 332.516 276.891 332.516C279.039 332.516 280.641 333.883 280.641 335.672C280.641 336.984 279.938 337.961 278.289 339.648L275.469 342.484V342.523H280.82V344H273.109V342.812L277.18 338.664C278.555 337.234 278.914 336.641 278.914 335.758C278.914 334.758 278.008 333.961 276.836 333.961C275.602 333.961 274.672 334.852 274.672 336.023V336.047H273.016V336.031ZM283.531 346.32H282.188L282.891 342.195H284.594L283.531 346.32ZM286.484 336.031C286.484 334 288.117 332.516 290.359 332.516C292.508 332.516 294.109 333.883 294.109 335.672C294.109 336.984 293.406 337.961 291.758 339.648L288.938 342.484V342.523H294.289V344H286.578V342.812L290.648 338.664C292.023 337.234 292.383 336.641 292.383 335.758C292.383 334.758 291.477 333.961 290.305 333.961C289.07 333.961 288.141 334.852 288.141 336.023V336.047H286.484V336.031ZM299.953 344.211C297.25 344.211 295.648 341.945 295.648 338.352C295.648 334.781 297.266 332.516 299.953 332.516C302.648 332.516 304.242 334.773 304.242 338.344C304.242 341.938 302.656 344.211 299.953 344.211ZM299.953 342.742C301.562 342.742 302.477 341.078 302.477 338.352C302.477 335.664 301.547 333.984 299.953 333.984C298.359 333.984 297.422 335.672 297.422 338.352C297.422 341.07 298.344 342.742 299.953 342.742ZM309.922 344.211C307.219 344.211 305.617 341.945 305.617 338.352C305.617 334.781 307.234 332.516 309.922 332.516C312.617 332.516 314.211 334.773 314.211 338.344C314.211 341.938 312.625 344.211 309.922 344.211ZM309.922 342.742C311.531 342.742 312.445 341.078 312.445 338.352C312.445 335.664 311.516 333.984 309.922 333.984C308.328 333.984 307.391 335.672 307.391 338.352C307.391 341.07 308.312 342.742 309.922 342.742Z" fill="#F8F4F4"/>
<path d="M260.523 388.812H259.453V387.78C257.227 387.632 255.797 386.413 255.789 384.608H257.445C257.523 385.569 258.273 386.233 259.453 386.366V382.671L258.758 382.491C257.008 382.054 256.047 381.007 256.047 379.491C256.047 377.71 257.336 376.522 259.453 376.327V375.241H260.523V376.327C262.562 376.499 263.891 377.733 263.938 379.46H262.305C262.273 378.577 261.562 377.882 260.523 377.749V381.241L261.25 381.405C263.188 381.89 264.133 382.866 264.133 384.491C264.133 386.39 262.812 387.585 260.523 387.772V388.812ZM262.477 384.647C262.477 383.718 261.867 383.155 260.523 382.874V386.39C261.766 386.319 262.477 385.679 262.477 384.647ZM257.719 379.374C257.719 380.218 258.328 380.78 259.453 381.015V377.749C258.453 377.804 257.719 378.476 257.719 379.374ZM269.867 387.952C267.352 387.952 265.602 386.601 265.602 384.694C265.602 383.257 266.617 382.108 268.109 381.796V381.757C266.859 381.413 266.055 380.437 266.055 379.226C266.055 377.515 267.656 376.257 269.867 376.257C272.086 376.257 273.672 377.507 273.672 379.233C273.672 380.429 272.875 381.397 271.625 381.757V381.796C273.125 382.108 274.133 383.265 274.133 384.694C274.133 386.608 272.367 387.952 269.867 387.952ZM269.867 386.546C271.305 386.546 272.32 385.718 272.32 384.569C272.32 383.405 271.305 382.577 269.867 382.577C268.43 382.577 267.406 383.413 267.406 384.569C267.406 385.718 268.43 386.546 269.867 386.546ZM269.867 381.171C271.078 381.171 271.945 380.437 271.945 379.413C271.945 378.382 271.086 377.647 269.867 377.647C268.641 377.647 267.789 378.382 267.789 379.413C267.789 380.437 268.641 381.171 269.867 381.171ZM276.641 390.062H275.297L276 385.937H277.703L276.641 390.062ZM281.633 387.741V378.202H281.594L278.648 380.296V378.577L281.617 376.468H283.344V387.741H281.633ZM290.336 387.96C288.672 387.96 287.336 387.108 286.602 385.585C286.141 384.687 285.906 383.577 285.906 382.257C285.906 378.483 287.594 376.249 290.414 376.249C292.406 376.249 293.953 377.444 294.297 379.241H292.547C292.273 378.319 291.43 377.718 290.398 377.718C288.625 377.718 287.594 379.327 287.586 382.163H287.617C288.109 381.069 289.305 380.335 290.711 380.335C292.859 380.335 294.453 381.921 294.453 384.062C294.453 386.319 292.727 387.96 290.336 387.96ZM290.32 386.483C291.648 386.483 292.711 385.437 292.711 384.116C292.711 382.749 291.719 381.765 290.336 381.765C288.961 381.765 287.938 382.749 287.938 384.085C287.938 385.421 288.977 386.483 290.32 386.483ZM300.047 387.952C297.344 387.952 295.742 385.687 295.742 382.093C295.742 378.522 297.359 376.257 300.047 376.257C302.742 376.257 304.336 378.515 304.336 382.085C304.336 385.679 302.75 387.952 300.047 387.952ZM300.047 386.483C301.656 386.483 302.57 384.819 302.57 382.093C302.57 379.405 301.641 377.726 300.047 377.726C298.453 377.726 297.516 379.413 297.516 382.093C297.516 384.812 298.438 386.483 300.047 386.483Z" fill="#F8F4F4"/>
<g filter="url(#filter2_d_119_2)">
<rect x="61" y="190" width="295" height="43" rx="10" fill="white"/>
<rect x="61.4608" y="190.461" width="294.078" height="42.0783" rx="9.53915" stroke="#E0E0E0" stroke-opacity="0.5" stroke-width="0.921695"/>
</g>
<path d="M73.5752 214.614H75.0414C75.1791 215.878 76.378 216.712 78.0468 216.712C79.6265 216.712 80.7768 215.878 80.7768 214.727C80.7768 213.739 80.0882 213.132 78.5167 212.727L77.018 212.338C74.8632 211.787 73.9073 210.839 73.9073 209.251C73.9073 207.307 75.6085 205.946 78.0387 205.946C80.3637 205.946 82.0486 207.323 82.1134 209.284H80.6553C80.5257 208.028 79.5131 207.258 77.9901 207.258C76.4753 207.258 75.4221 208.044 75.4221 209.186C75.4221 210.069 76.0702 210.596 77.658 211.009L78.8812 211.333C81.3034 211.941 82.2836 212.872 82.2836 214.549C82.2836 216.688 80.5986 218.024 77.9091 218.024C75.4302 218.024 73.7129 216.68 73.5752 214.614ZM87.1441 210.483C85.8236 210.483 84.9001 211.495 84.811 212.897H89.388C89.3556 211.487 88.4726 210.483 87.1441 210.483ZM89.3556 215.416H90.7408C90.4978 216.89 89.072 217.976 87.2332 217.976C84.8191 217.976 83.3529 216.299 83.3529 213.65C83.3529 211.033 84.8434 209.259 87.1684 209.259C89.4447 209.259 90.8461 210.912 90.8461 213.464V213.998H84.8029V214.079C84.8029 215.691 85.7507 216.753 87.2656 216.753C88.3349 216.753 89.1207 216.21 89.3556 215.416ZM95.0505 216.777C96.379 216.777 97.3997 215.845 97.3997 214.63V213.942L95.1477 214.079C94.0136 214.152 93.3655 214.655 93.3655 215.448C93.3655 216.25 94.0379 216.777 95.0505 216.777ZM94.7345 217.976C93.0577 217.976 91.9316 216.963 91.9316 215.448C91.9316 214.006 93.0415 213.099 94.9857 212.986L97.3997 212.848V212.143C97.3997 211.114 96.7192 210.499 95.5527 210.499C94.4672 210.499 93.7867 211.009 93.6085 211.835H92.2476C92.3448 210.377 93.5923 209.259 95.5851 209.259C97.5617 209.259 98.8092 210.329 98.8092 212.006V217.83H97.4726V216.38H97.4402C96.938 217.344 95.8686 217.976 94.7345 217.976ZM100.6 217.83V209.405H101.928V210.782H101.96C102.236 209.851 103.014 209.259 104.002 209.259C104.245 209.259 104.456 209.3 104.569 209.316V210.685C104.456 210.645 104.156 210.604 103.816 210.604C102.722 210.604 102.009 211.39 102.009 212.581V217.83H100.6ZM112.313 212.168H110.936C110.734 211.252 110.021 210.499 108.781 210.499C107.323 210.499 106.335 211.706 106.335 213.618C106.335 215.578 107.339 216.736 108.798 216.736C109.948 216.736 110.701 216.129 110.944 215.116H112.33C112.111 216.793 110.701 217.976 108.789 217.976C106.456 217.976 104.901 216.331 104.901 213.618C104.901 210.961 106.448 209.259 108.773 209.259C110.879 209.259 112.135 210.653 112.313 212.168ZM113.699 217.83V206.141H115.108V210.75H115.141C115.61 209.81 116.534 209.259 117.814 209.259C119.661 209.259 120.779 210.507 120.779 212.386V217.83H119.369V212.646C119.369 211.309 118.697 210.507 117.376 210.507C115.975 210.507 115.108 211.463 115.108 212.921V217.83H113.699ZM130.159 217.976C128.928 217.976 127.964 217.376 127.421 216.404H127.389V217.83H126.044V206.141H127.454V210.815H127.486C128.013 209.851 128.993 209.259 130.184 209.259C132.306 209.259 133.74 210.977 133.74 213.618C133.74 216.267 132.314 217.976 130.159 217.976ZM129.884 210.499C128.458 210.499 127.446 211.746 127.446 213.618C127.446 215.497 128.458 216.736 129.884 216.736C131.375 216.736 132.298 215.546 132.298 213.618C132.298 211.706 131.375 210.499 129.884 210.499ZM135.628 220.981C135.457 220.981 135.174 220.965 135.02 220.933V219.75C135.174 219.782 135.393 219.79 135.571 219.79C136.357 219.79 136.794 219.41 137.118 218.43L137.312 217.838L134.202 209.405H135.709L138.042 216.421H138.066L140.399 209.405H141.881L138.568 218.421C137.847 220.39 137.15 220.981 135.628 220.981ZM155.953 217.83H154.494V212.508H148.079V217.83H146.62V206.141H148.079V211.195H154.494V206.141H155.953V217.83ZM161.493 217.976C159.16 217.976 157.589 216.299 157.589 213.618C157.589 210.928 159.16 209.259 161.493 209.259C163.818 209.259 165.39 210.928 165.39 213.618C165.39 216.299 163.818 217.976 161.493 217.976ZM161.493 216.736C162.984 216.736 163.956 215.602 163.956 213.618C163.956 211.633 162.984 210.499 161.493 210.499C160.003 210.499 159.023 211.633 159.023 213.618C159.023 215.602 160.003 216.736 161.493 216.736ZM166.67 211.73C166.67 210.288 167.958 209.259 169.813 209.259C171.555 209.259 172.835 210.296 172.899 211.722H171.555C171.457 210.912 170.801 210.41 169.764 210.41C168.736 210.41 168.055 210.92 168.055 211.657C168.055 212.241 168.501 212.629 169.457 212.872L170.761 213.188C172.462 213.618 173.078 214.233 173.078 215.473C173.078 216.939 171.692 217.976 169.724 217.976C167.877 217.976 166.589 216.971 166.443 215.481H167.853C168.007 216.356 168.671 216.826 169.813 216.826C170.955 216.826 171.66 216.34 171.66 215.578C171.66 214.979 171.312 214.655 170.364 214.403L168.881 214.023C167.399 213.642 166.67 212.88 166.67 211.73ZM178.635 209.259C180.782 209.259 182.24 210.977 182.24 213.618C182.24 216.259 180.79 217.976 178.667 217.976C177.46 217.976 176.488 217.385 175.986 216.461H175.953V220.641H174.544V209.405H175.881V210.831H175.913C176.431 209.883 177.412 209.259 178.635 209.259ZM178.359 216.736C179.858 216.736 180.798 215.529 180.798 213.618C180.798 211.714 179.858 210.499 178.359 210.499C176.917 210.499 175.945 211.746 175.945 213.618C175.945 215.497 176.917 216.736 178.359 216.736ZM183.738 217.83V209.405H185.148V217.83H183.738ZM184.443 207.988C183.965 207.988 183.568 207.591 183.568 207.113C183.568 206.627 183.965 206.238 184.443 206.238C184.929 206.238 185.326 206.627 185.326 207.113C185.326 207.591 184.929 207.988 184.443 207.988ZM187.505 207.372H188.915V209.405H190.551V210.564H188.915V215.57C188.915 216.34 189.239 216.688 189.96 216.688C190.122 216.688 190.446 216.664 190.543 216.647V217.83C190.373 217.871 189.984 217.895 189.652 217.895C188.105 217.895 187.505 217.263 187.505 215.643V210.564H186.25V209.405H187.505V207.372ZM194.674 216.777C196.003 216.777 197.024 215.845 197.024 214.63V213.942L194.772 214.079C193.638 214.152 192.99 214.655 192.99 215.448C192.99 216.25 193.662 216.777 194.674 216.777ZM194.359 217.976C192.682 217.976 191.556 216.963 191.556 215.448C191.556 214.006 192.665 213.099 194.61 212.986L197.024 212.848V212.143C197.024 211.114 196.343 210.499 195.177 210.499C194.091 210.499 193.411 211.009 193.233 211.835H191.872C191.969 210.377 193.216 209.259 195.209 209.259C197.186 209.259 198.433 210.329 198.433 212.006V217.83H197.097V216.38H197.064C196.562 217.344 195.493 217.976 194.359 217.976ZM200.296 217.83V206.141H201.706V217.83H200.296ZM208.673 217.83H207.231V206.141H208.648L215.048 215.319H215.121V206.141H216.563V217.83H215.145L208.746 208.684H208.673V217.83ZM221.148 216.777C222.477 216.777 223.497 215.845 223.497 214.63V213.942L221.245 214.079C220.111 214.152 219.463 214.655 219.463 215.448C219.463 216.25 220.135 216.777 221.148 216.777ZM220.832 217.976C219.155 217.976 218.029 216.963 218.029 215.448C218.029 214.006 219.139 213.099 221.083 212.986L223.497 212.848V212.143C223.497 211.114 222.817 210.499 221.65 210.499C220.565 210.499 219.884 211.009 219.706 211.835H218.345C218.442 210.377 219.69 209.259 221.683 209.259C223.659 209.259 224.907 210.329 224.907 212.006V217.83H223.57V216.38H223.538C223.035 217.344 221.966 217.976 220.832 217.976ZM226.697 217.83V209.405H228.026V210.75H228.058C228.455 209.859 229.314 209.259 230.448 209.259C231.598 209.259 232.449 209.843 232.813 210.863H232.846C233.315 209.859 234.304 209.259 235.486 209.259C237.155 209.259 238.233 210.345 238.233 212.014V217.83H236.823V212.338C236.823 211.187 236.183 210.507 235.073 210.507C233.955 210.507 233.17 211.333 233.17 212.475V217.83H231.76V212.184C231.76 211.171 231.08 210.507 230.035 210.507C228.917 210.507 228.107 211.382 228.107 212.548V217.83H226.697ZM243.409 210.483C242.089 210.483 241.165 211.495 241.076 212.897H245.653C245.621 211.487 244.738 210.483 243.409 210.483ZM245.621 215.416H247.006C246.763 216.89 245.337 217.976 243.498 217.976C241.084 217.976 239.618 216.299 239.618 213.65C239.618 211.033 241.108 209.259 243.433 209.259C245.71 209.259 247.111 210.912 247.111 213.464V213.998H241.068V214.079C241.068 215.691 242.016 216.753 243.531 216.753C244.6 216.753 245.386 216.21 245.621 215.416Z" fill="#828282"/>
<path d="M337 216L341 220M323 210C323 212.122 323.843 214.157 325.343 215.657C326.843 217.157 328.878 218 331 218C333.122 218 335.157 217.157 336.657 215.657C338.157 214.157 339 212.122 339 210C339 207.878 338.157 205.843 336.657 204.343C335.157 202.843 333.122 202 331 202C328.878 202 326.843 202.843 325.343 204.343C323.843 205.843 323 207.878 323 210Z" stroke="#828282" stroke-width="1.5" stroke-linecap="round" stroke-linejoin="round"/>
<g filter="url(#filter3_b_119_2)">
<path d="M364 201C364 198.791 365.791 197 368 197H452V226H368C365.791 226 364 224.209 364 222V201Z" fill="url(#paint5_linear_119_2)" fill-opacity="0.1"/>
<path d="M378.789 217H377.039V205.727H378.789V217ZM380.664 217V208.781H382.273V210.156H382.312C382.758 209.219 383.633 208.641 384.898 208.641C386.711 208.641 387.75 209.797 387.75 211.68V217H386.055V212.008C386.055 210.773 385.477 210.094 384.305 210.094C383.117 210.094 382.352 210.938 382.352 212.211V217H380.664ZM396.438 211.609H394.828C394.656 210.734 394 210.039 392.898 210.039C391.594 210.039 390.734 211.125 390.734 212.891C390.734 214.695 391.602 215.742 392.914 215.742C393.953 215.742 394.633 215.172 394.828 214.219H396.453C396.273 215.969 394.875 217.156 392.898 217.156C390.547 217.156 389.016 215.547 389.016 212.891C389.016 210.281 390.547 208.633 392.883 208.633C395 208.633 396.289 209.992 396.438 211.609ZM401.18 217.156C398.828 217.156 397.281 215.539 397.281 212.891C397.281 210.25 398.836 208.633 401.18 208.633C403.523 208.633 405.078 210.25 405.078 212.891C405.078 215.539 403.531 217.156 401.18 217.156ZM401.18 215.766C402.508 215.766 403.359 214.719 403.359 212.891C403.359 211.07 402.5 210.023 401.18 210.023C399.859 210.023 399 211.07 399 212.891C399 214.719 399.859 215.766 401.18 215.766ZM406.383 217V208.781H407.992V210.164H408.031C408.398 209.25 409.258 208.641 410.367 208.641C411.508 208.641 412.336 209.227 412.664 210.25H412.703C413.125 209.25 414.094 208.641 415.266 208.641C416.891 208.641 417.953 209.719 417.953 211.352V217H416.258V211.758C416.258 210.695 415.688 210.086 414.688 210.086C413.688 210.086 412.992 210.828 412.992 211.867V217H411.336V211.633C411.336 210.688 410.734 210.086 409.781 210.086C408.781 210.086 408.07 210.867 408.07 211.922V217H406.383ZM419.641 217V208.781H421.328V217H419.641ZM420.484 207.578C419.945 207.578 419.508 207.148 419.508 206.617C419.508 206.078 419.945 205.648 420.484 205.648C421.031 205.648 421.469 206.078 421.469 206.617C421.469 207.148 421.031 207.578 420.484 207.578ZM423.055 217V208.781H424.664V210.156H424.703C425.148 209.219 426.023 208.641 427.289 208.641C429.102 208.641 430.141 209.797 430.141 211.68V217H428.445V212.008C428.445 210.773 427.867 210.094 426.695 210.094C425.508 210.094 424.742 210.938 424.742 212.211V217H423.055ZM435.273 215.633C436.594 215.633 437.461 214.562 437.461 212.867C437.461 211.18 436.594 210.07 435.273 210.07C433.977 210.07 433.133 211.156 433.133 212.867C433.133 214.586 433.977 215.633 435.273 215.633ZM435.289 220.094C433.352 220.094 431.914 219.062 431.703 217.641H433.398C433.641 218.328 434.391 218.781 435.352 218.781C436.672 218.781 437.453 218.031 437.453 216.906V215.555H437.422C436.961 216.445 435.992 217.031 434.82 217.031C432.758 217.031 431.406 215.422 431.406 212.859C431.406 210.273 432.75 208.648 434.859 208.648C436.023 208.648 436.977 209.234 437.477 210.188H437.508V208.781H439.148V216.852C439.148 218.812 437.633 220.094 435.289 220.094Z" fill="#C2FFED"/>
<path d="M364.5 201C364.5 199.067 366.067 197.5 368 197.5H451.5V225.5H368C366.067 225.5 364.5 223.933 364.5 222V201Z" stroke="url(#paint6_linear_119_2)"/>
</g>
<g filter="url(#filter4_b_119_2)">
<path d="M452 197H537C539.209 197 541 198.791 541 201V222C541 224.209 539.209 226 537 226H452V197Z" fill="url(#paint7_linear_119_2)" fill-opacity="0.8"/>
<path d="M469.914 205.539C473.156 205.539 475.195 207.781 475.195 211.367C475.195 214.953 473.156 217.188 469.914 217.188C466.664 217.188 464.633 214.953 464.633 211.367C464.633 207.781 466.664 205.539 469.914 205.539ZM469.914 207.078C467.773 207.078 466.422 208.734 466.422 211.367C466.422 213.992 467.773 215.648 469.914 215.648C472.055 215.648 473.398 213.992 473.398 211.367C473.398 208.734 472.055 207.078 469.914 207.078ZM483.711 208.781V217H482.094V215.609H482.055C481.602 216.594 480.766 217.148 479.508 217.148C477.719 217.148 476.625 215.984 476.625 214.102V208.781H478.312V213.773C478.312 215.023 478.906 215.695 480.07 215.695C481.289 215.695 482.023 214.852 482.023 213.57V208.781H483.711ZM485.875 206.836H487.57V208.781H489.133V210.117H487.57V214.648C487.57 215.359 487.883 215.68 488.57 215.68C488.742 215.68 489.016 215.664 489.125 215.641V216.977C488.938 217.023 488.562 217.055 488.188 217.055C486.523 217.055 485.875 216.422 485.875 214.836V210.117H484.68V208.781H485.875V206.836ZM493.82 215.633C495.141 215.633 496.008 214.562 496.008 212.867C496.008 211.18 495.141 210.07 493.82 210.07C492.523 210.07 491.68 211.156 491.68 212.867C491.68 214.586 492.523 215.633 493.82 215.633ZM493.836 220.094C491.898 220.094 490.461 219.062 490.25 217.641H491.945C492.188 218.328 492.938 218.781 493.898 218.781C495.219 218.781 496 218.031 496 216.906V215.555H495.969C495.508 216.445 494.539 217.031 493.367 217.031C491.305 217.031 489.953 215.422 489.953 212.859C489.953 210.273 491.297 208.648 493.406 208.648C494.57 208.648 495.523 209.234 496.023 210.188H496.055V208.781H497.695V216.852C497.695 218.812 496.18 220.094 493.836 220.094ZM502.898 217.156C500.547 217.156 499 215.539 499 212.891C499 210.25 500.555 208.633 502.898 208.633C505.242 208.633 506.797 210.25 506.797 212.891C506.797 215.539 505.25 217.156 502.898 217.156ZM502.898 215.766C504.227 215.766 505.078 214.719 505.078 212.891C505.078 211.07 504.219 210.023 502.898 210.023C501.578 210.023 500.719 211.07 500.719 212.891C500.719 214.719 501.578 215.766 502.898 215.766ZM508.156 217V208.781H509.844V217H508.156ZM509 207.578C508.461 207.578 508.023 207.148 508.023 206.617C508.023 206.078 508.461 205.648 509 205.648C509.547 205.648 509.984 206.078 509.984 206.617C509.984 207.148 509.547 207.578 509 207.578ZM511.57 217V208.781H513.18V210.156H513.219C513.664 209.219 514.539 208.641 515.805 208.641C517.617 208.641 518.656 209.797 518.656 211.68V217H516.961V212.008C516.961 210.773 516.383 210.094 515.211 210.094C514.023 210.094 513.258 210.938 513.258 212.211V217H511.57ZM523.789 215.633C525.109 215.633 525.977 214.562 525.977 212.867C525.977 211.18 525.109 210.07 523.789 210.07C522.492 210.07 521.648 211.156 521.648 212.867C521.648 214.586 522.492 215.633 523.789 215.633ZM523.805 220.094C521.867 220.094 520.43 219.062 520.219 217.641H521.914C522.156 218.328 522.906 218.781 523.867 218.781C525.188 218.781 525.969 218.031 525.969 216.906V215.555H525.938C525.477 216.445 524.508 217.031 523.336 217.031C521.273 217.031 519.922 215.422 519.922 212.859C519.922 210.273 521.266 208.648 523.375 208.648C524.539 208.648 525.492 209.234 525.992 210.188H526.023V208.781H527.664V216.852C527.664 218.812 526.148 220.094 523.805 220.094Z" fill="#064432"/>
</g>
<g filter="url(#filter5_b_119_2)">
<rect x="385" y="246" width="194" height="170" rx="8" fill="#A9FFF0" fill-opacity="0.1"/>
<path d="M415.243 389.801C414.755 390.059 414.569 390.665 414.827 391.153C415.086 391.641 415.691 391.827 416.179 391.569L415.243 389.801ZM527.248 301.287C529.066 303.605 532.418 304.011 534.736 302.194C537.054 300.377 537.46 297.025 535.643 294.707C533.825 292.389 530.473 291.983 528.155 293.8C525.836 295.617 525.431 298.97 527.248 301.287ZM497.306 334.348L497.447 335.338L497.306 334.348ZM498.624 333.569L497.824 332.969L498.624 333.569ZM448.916 373.107L448.448 372.224L448.916 373.107ZM449.751 372.27L450.636 372.735L449.751 372.27ZM468.446 338.453L468.587 339.443L468.446 338.453ZM520.542 304.384L519.742 303.784L520.542 304.384ZM521.153 303.846L521.647 304.716L521.153 303.846ZM416.179 391.569L449.384 373.991L448.448 372.224L415.243 389.801L416.179 391.569ZM450.636 372.735L467.842 339.969L466.071 339.039L448.865 371.805L450.636 372.735ZM468.587 339.443L497.447 335.338L497.165 333.358L468.305 337.463L468.587 339.443ZM499.424 334.17L521.342 304.985L519.742 303.784L497.824 332.969L499.424 334.17ZM521.647 304.716L531.94 298.866L530.951 297.128L520.659 302.977L521.647 304.716ZM497.447 335.338C498.235 335.226 498.946 334.806 499.424 334.17L497.824 332.969C497.665 333.181 497.428 333.321 497.165 333.358L497.447 335.338ZM449.384 373.991C449.918 373.708 450.355 373.27 450.636 372.735L448.865 371.805C448.772 371.983 448.626 372.129 448.448 372.224L449.384 373.991ZM467.842 339.969C467.992 339.684 468.269 339.489 468.587 339.443L468.305 337.463C467.351 337.599 466.52 338.185 466.071 339.039L467.842 339.969ZM521.342 304.985C521.424 304.875 521.528 304.783 521.647 304.716L520.659 302.977C520.301 303.18 519.989 303.455 519.742 303.784L521.342 304.985Z" fill="#B8F2E1"/>
<path d="M415 256L415 410" stroke="#B8F2E1" stroke-opacity="0.8" stroke-linecap="round"/>
<path d="M573 392L395 392" stroke="#B8F2E1" stroke-opacity="0.8" stroke-linecap="round"/>
<line x1="572.794" y1="367.872" x2="396.912" y2="367.872" stroke="#B8F2E1" stroke-opacity="0.6" stroke-linecap="round" stroke-dasharray="4 4"/>
<line x1="572.794" y1="345.051" x2="396.912" y2="345.051" stroke="#B8F2E1" stroke-opacity="0.6" stroke-linecap="round" stroke-dasharray="4 4"/>
<line x1="572.794" y1="322.231" x2="396.912" y2="322.231" stroke="#B8F2E1" stroke-opacity="0.6" stroke-linecap="round" stroke-dasharray="4 4"/>
<line x1="572.794" y1="299.41" x2="396.912" y2="299.41" stroke="#B8F2E1" stroke-opacity="0.6" stroke-linecap="round" stroke-dasharray="4 4"/>
<line x1="572.794" y1="276.59" x2="396.912" y2="276.59" stroke="#B8F2E1" stroke-opacity="0.6" stroke-linecap="round" stroke-dasharray="4 4"/>
<path d="M431.496 398.728C431.533 398.243 431.72 397.861 432.056 397.584C432.397 397.301 432.837 397.16 433.376 397.16C433.733 397.16 434.04 397.224 434.296 397.352C434.552 397.48 434.744 397.656 434.872 397.88C435.005 398.099 435.072 398.347 435.072 398.624C435.072 398.96 434.973 399.251 434.776 399.496C434.579 399.741 434.299 399.893 433.936 399.952V399.992C434.315 400.067 434.616 400.232 434.84 400.488C435.064 400.739 435.176 401.069 435.176 401.48C435.176 401.939 435.021 402.315 434.712 402.608C434.408 402.896 433.965 403.04 433.384 403.04C432.829 403.04 432.373 402.896 432.016 402.608C431.659 402.315 431.453 401.901 431.4 401.368H431.944C431.992 401.725 432.141 402.016 432.392 402.24C432.643 402.459 432.973 402.568 433.384 402.568C433.789 402.568 434.099 402.461 434.312 402.248C434.531 402.035 434.64 401.763 434.64 401.432C434.64 400.621 434.056 400.216 432.888 400.216H432.712V399.744H432.896C433.984 399.744 434.528 399.389 434.528 398.68C434.528 398.371 434.427 398.123 434.224 397.936C434.021 397.744 433.733 397.648 433.36 397.648C432.997 397.648 432.696 397.744 432.456 397.936C432.221 398.123 432.083 398.387 432.04 398.728H431.496ZM436.2 400.08C436.2 399.163 436.341 398.451 436.624 397.944C436.906 397.437 437.413 397.184 438.144 397.184C438.874 397.184 439.381 397.437 439.664 397.944C439.946 398.451 440.088 399.163 440.088 400.08C440.088 401.013 439.946 401.736 439.664 402.248C439.381 402.76 438.874 403.016 438.144 403.016C437.408 403.016 436.898 402.76 436.616 402.248C436.338 401.736 436.2 401.013 436.2 400.08ZM439.536 400.08C439.536 399.584 439.501 399.165 439.432 398.824C439.362 398.483 439.226 398.208 439.024 398C438.821 397.792 438.528 397.688 438.144 397.688C437.76 397.688 437.466 397.792 437.264 398C437.061 398.208 436.925 398.483 436.856 398.824C436.786 399.165 436.752 399.584 436.752 400.08C436.752 400.592 436.786 401.021 436.856 401.368C436.925 401.709 437.061 401.984 437.264 402.192C437.466 402.4 437.76 402.504 438.144 402.504C438.528 402.504 438.821 402.4 439.024 402.192C439.226 401.984 439.362 401.709 439.432 401.368C439.501 401.021 439.536 400.592 439.536 400.08ZM441.129 400.08C441.129 399.163 441.271 398.451 441.553 397.944C441.836 397.437 442.343 397.184 443.073 397.184C443.804 397.184 444.311 397.437 444.593 397.944C444.876 398.451 445.017 399.163 445.017 400.08C445.017 401.013 444.876 401.736 444.593 402.248C444.311 402.76 443.804 403.016 443.073 403.016C442.337 403.016 441.828 402.76 441.545 402.248C441.268 401.736 441.129 401.013 441.129 400.08ZM444.465 400.08C444.465 399.584 444.431 399.165 444.361 398.824C444.292 398.483 444.156 398.208 443.953 398C443.751 397.792 443.457 397.688 443.073 397.688C442.689 397.688 442.396 397.792 442.193 398C441.991 398.208 441.855 398.483 441.785 398.824C441.716 399.165 441.681 399.584 441.681 400.08C441.681 400.592 441.716 401.021 441.785 401.368C441.855 401.709 441.991 401.984 442.193 402.192C442.396 402.4 442.689 402.504 443.073 402.504C443.457 402.504 443.751 402.4 443.953 402.192C444.156 401.984 444.292 401.709 444.361 401.368C444.431 401.021 444.465 400.592 444.465 400.08Z" fill="#8DFFDE"/>
<path d="M408.64 361.024C408.309 360.917 408.056 360.749 407.88 360.52C407.709 360.291 407.624 360.013 407.624 359.688C407.624 359.4 407.696 359.144 407.84 358.92C407.989 358.691 408.205 358.512 408.488 358.384C408.77 358.251 409.109 358.184 409.504 358.184C409.898 358.184 410.237 358.251 410.52 358.384C410.802 358.512 411.016 358.691 411.16 358.92C411.309 359.144 411.384 359.4 411.384 359.688C411.384 360.008 411.296 360.285 411.12 360.52C410.949 360.755 410.698 360.923 410.368 361.024C410.73 361.115 411.016 361.288 411.224 361.544C411.432 361.8 411.536 362.112 411.536 362.48C411.536 362.821 411.45 363.12 411.28 363.376C411.114 363.627 410.877 363.821 410.568 363.96C410.264 364.099 409.909 364.168 409.504 364.168C409.098 364.168 408.741 364.099 408.432 363.96C408.128 363.821 407.89 363.627 407.72 363.376C407.554 363.12 407.472 362.821 407.472 362.48C407.472 362.112 407.576 361.8 407.784 361.544C407.992 361.288 408.277 361.115 408.64 361.024ZM410.84 359.752C410.84 359.4 410.72 359.128 410.48 358.936C410.24 358.744 409.914 358.648 409.504 358.648C409.093 358.648 408.768 358.744 408.528 358.936C408.288 359.123 408.168 359.395 408.168 359.752C408.168 360.083 408.29 360.347 408.536 360.544C408.781 360.741 409.104 360.84 409.504 360.84C409.904 360.84 410.226 360.741 410.472 360.544C410.717 360.347 410.84 360.083 410.84 359.752ZM409.504 361.272C409.066 361.272 408.709 361.371 408.432 361.568C408.154 361.765 408.016 362.064 408.016 362.464C408.016 362.848 408.149 363.149 408.416 363.368C408.682 363.587 409.045 363.696 409.504 363.696C409.957 363.696 410.317 363.587 410.584 363.368C410.85 363.144 410.984 362.843 410.984 362.464C410.984 362.069 410.845 361.773 410.568 361.576C410.296 361.373 409.941 361.272 409.504 361.272Z" fill="#8DFFDE"/>
<path d="M405.334 335.768V335.264H406.694V341H406.126V335.768H405.334ZM407.83 340.56C408.811 339.824 409.569 339.165 410.102 338.584C410.641 337.997 410.91 337.424 410.91 336.864C410.91 336.496 410.817 336.203 410.63 335.984C410.449 335.76 410.15 335.648 409.734 335.648C409.329 335.648 409.014 335.776 408.79 336.032C408.571 336.283 408.449 336.619 408.422 337.04H407.878C407.91 336.448 408.091 335.989 408.422 335.664C408.758 335.333 409.195 335.168 409.734 335.168C410.251 335.168 410.67 335.315 410.99 335.608C411.31 335.896 411.47 336.307 411.47 336.84C411.47 337.485 411.201 338.112 410.662 338.72C410.129 339.323 409.47 339.912 408.686 340.488H411.646V340.96H407.83V340.56Z" fill="#8DFFDE"/>
<path d="M404.881 312.768V312.264H406.241V318H405.673V312.768H404.881ZM410.785 313.664C410.667 312.971 410.265 312.624 409.577 312.624C409.054 312.624 408.662 312.827 408.401 313.232C408.139 313.637 408.019 314.301 408.041 315.224C408.147 314.904 408.35 314.653 408.649 314.472C408.953 314.285 409.299 314.192 409.689 314.192C410.249 314.192 410.691 314.365 411.017 314.712C411.347 315.053 411.513 315.525 411.513 316.128C411.513 316.48 411.443 316.8 411.305 317.088C411.171 317.371 410.963 317.597 410.681 317.768C410.403 317.939 410.057 318.024 409.641 318.024C408.846 318.024 408.297 317.771 407.993 317.264C407.694 316.757 407.545 316.04 407.545 315.112C407.545 313.139 408.222 312.152 409.577 312.152C410.089 312.152 410.491 312.293 410.785 312.576C411.078 312.853 411.251 313.216 411.305 313.664H410.785ZM409.585 314.672C409.334 314.672 409.097 314.723 408.873 314.824C408.649 314.925 408.465 315.08 408.321 315.288C408.182 315.491 408.113 315.741 408.113 316.04C408.113 316.472 408.241 316.832 408.497 317.12C408.753 317.408 409.126 317.552 409.617 317.552C410.027 317.552 410.355 317.427 410.601 317.176C410.846 316.925 410.969 316.584 410.969 316.152C410.969 315.688 410.849 315.325 410.609 315.064C410.369 314.803 410.027 314.672 409.585 314.672Z" fill="#8DFFDE"/>
<path d="M402.9 294.56C403.882 293.824 404.639 293.165 405.172 292.584C405.711 291.997 405.98 291.424 405.98 290.864C405.98 290.496 405.887 290.203 405.7 289.984C405.519 289.76 405.22 289.648 404.804 289.648C404.399 289.648 404.084 289.776 403.86 290.032C403.642 290.283 403.519 290.619 403.492 291.04H402.948C402.98 290.448 403.162 289.989 403.492 289.664C403.828 289.333 404.266 289.168 404.804 289.168C405.322 289.168 405.74 289.315 406.06 289.608C406.38 289.896 406.54 290.307 406.54 290.84C406.54 291.485 406.271 292.112 405.732 292.72C405.199 293.323 404.54 293.912 403.756 294.488H406.716V294.96H402.9V294.56ZM407.59 292.08C407.59 291.163 407.732 290.451 408.014 289.944C408.297 289.437 408.804 289.184 409.534 289.184C410.265 289.184 410.772 289.437 411.054 289.944C411.337 290.451 411.478 291.163 411.478 292.08C411.478 293.013 411.337 293.736 411.054 294.248C410.772 294.76 410.265 295.016 409.534 295.016C408.798 295.016 408.289 294.76 408.006 294.248C407.729 293.736 407.59 293.013 407.59 292.08ZM410.926 292.08C410.926 291.584 410.892 291.165 410.822 290.824C410.753 290.483 410.617 290.208 410.414 290C410.212 289.792 409.918 289.688 409.534 289.688C409.15 289.688 408.857 289.792 408.654 290C408.452 290.208 408.316 290.483 408.246 290.824C408.177 291.165 408.142 291.584 408.142 292.08C408.142 292.592 408.177 293.021 408.246 293.368C408.316 293.709 408.452 293.984 408.654 294.192C408.857 294.4 409.15 294.504 409.534 294.504C409.918 294.504 410.212 294.4 410.414 294.192C410.617 293.984 410.753 293.709 410.822 293.368C410.892 293.021 410.926 292.592 410.926 292.08Z" fill="#8DFFDE"/>
<path d="M466.272 401.64V401.216L469.184 397.296H469.848V401.152H470.704V401.64H469.848V403H469.296V401.64H466.272ZM469.32 397.912L466.92 401.152H469.32V397.912ZM471.426 400.08C471.426 399.163 471.568 398.451 471.85 397.944C472.133 397.437 472.64 397.184 473.37 397.184C474.101 397.184 474.608 397.437 474.89 397.944C475.173 398.451 475.314 399.163 475.314 400.08C475.314 401.013 475.173 401.736 474.89 402.248C474.608 402.76 474.101 403.016 473.37 403.016C472.634 403.016 472.125 402.76 471.842 402.248C471.565 401.736 471.426 401.013 471.426 400.08ZM474.762 400.08C474.762 399.584 474.728 399.165 474.658 398.824C474.589 398.483 474.453 398.208 474.25 398C474.048 397.792 473.754 397.688 473.37 397.688C472.986 397.688 472.693 397.792 472.49 398C472.288 398.208 472.152 398.483 472.082 398.824C472.013 399.165 471.978 399.584 471.978 400.08C471.978 400.592 472.013 401.021 472.082 401.368C472.152 401.709 472.288 401.984 472.49 402.192C472.693 402.4 472.986 402.504 473.37 402.504C473.754 402.504 474.048 402.4 474.25 402.192C474.453 401.984 474.589 401.709 474.658 401.368C474.728 401.021 474.762 400.592 474.762 400.08ZM476.356 400.08C476.356 399.163 476.497 398.451 476.78 397.944C477.063 397.437 477.569 397.184 478.3 397.184C479.031 397.184 479.537 397.437 479.82 397.944C480.103 398.451 480.244 399.163 480.244 400.08C480.244 401.013 480.103 401.736 479.82 402.248C479.537 402.76 479.031 403.016 478.3 403.016C477.564 403.016 477.055 402.76 476.772 402.248C476.495 401.736 476.356 401.013 476.356 400.08ZM479.692 400.08C479.692 399.584 479.657 399.165 479.588 398.824C479.519 398.483 479.383 398.208 479.18 398C478.977 397.792 478.684 397.688 478.3 397.688C477.916 397.688 477.623 397.792 477.42 398C477.217 398.208 477.081 398.483 477.012 398.824C476.943 399.165 476.908 399.584 476.908 400.08C476.908 400.592 476.943 401.021 477.012 401.368C477.081 401.709 477.217 401.984 477.42 402.192C477.623 402.4 477.916 402.504 478.3 402.504C478.684 402.504 478.977 402.4 479.18 402.192C479.383 401.984 479.519 401.709 479.588 401.368C479.657 401.021 479.692 400.592 479.692 400.08Z" fill="#8DFFDE"/>
<path d="M505.136 397.744H502.208V399.792C502.341 399.605 502.536 399.453 502.792 399.336C503.048 399.213 503.325 399.152 503.624 399.152C504.061 399.152 504.419 399.243 504.696 399.424C504.973 399.6 505.173 399.832 505.296 400.12C505.419 400.403 505.48 400.707 505.48 401.032C505.48 401.405 505.408 401.744 505.264 402.048C505.125 402.347 504.909 402.584 504.616 402.76C504.328 402.936 503.968 403.024 503.536 403.024C502.987 403.024 502.541 402.883 502.2 402.6C501.859 402.312 501.651 401.925 501.576 401.44H502.128C502.197 401.792 502.357 402.064 502.608 402.256C502.859 402.448 503.168 402.544 503.536 402.544C504 402.544 504.349 402.408 504.584 402.136C504.824 401.859 504.944 401.493 504.944 401.04C504.944 400.597 504.824 400.253 504.584 400.008C504.344 399.757 504 399.632 503.552 399.632C503.243 399.632 502.971 399.704 502.736 399.848C502.501 399.992 502.328 400.187 502.216 400.432H501.688V397.256H505.136V397.744ZM506.458 400.08C506.458 399.163 506.599 398.451 506.882 397.944C507.164 397.437 507.671 397.184 508.402 397.184C509.132 397.184 509.639 397.437 509.922 397.944C510.204 398.451 510.345 399.163 510.345 400.08C510.345 401.013 510.204 401.736 509.922 402.248C509.639 402.76 509.132 403.016 508.402 403.016C507.666 403.016 507.156 402.76 506.874 402.248C506.596 401.736 506.458 401.013 506.458 400.08ZM509.794 400.08C509.794 399.584 509.759 399.165 509.69 398.824C509.62 398.483 509.484 398.208 509.282 398C509.079 397.792 508.786 397.688 508.402 397.688C508.018 397.688 507.724 397.792 507.522 398C507.319 398.208 507.183 398.483 507.113 398.824C507.044 399.165 507.01 399.584 507.01 400.08C507.01 400.592 507.044 401.021 507.113 401.368C507.183 401.709 507.319 401.984 507.522 402.192C507.724 402.4 508.018 402.504 508.402 402.504C508.786 402.504 509.079 402.4 509.282 402.192C509.484 401.984 509.62 401.709 509.69 401.368C509.759 401.021 509.794 400.592 509.794 400.08ZM511.387 400.08C511.387 399.163 511.529 398.451 511.811 397.944C512.094 397.437 512.601 397.184 513.331 397.184C514.062 397.184 514.569 397.437 514.851 397.944C515.134 398.451 515.275 399.163 515.275 400.08C515.275 401.013 515.134 401.736 514.851 402.248C514.569 402.76 514.062 403.016 513.331 403.016C512.595 403.016 512.086 402.76 511.803 402.248C511.526 401.736 511.387 401.013 511.387 400.08ZM514.723 400.08C514.723 399.584 514.689 399.165 514.619 398.824C514.55 398.483 514.414 398.208 514.211 398C514.009 397.792 513.715 397.688 513.331 397.688C512.947 397.688 512.654 397.792 512.451 398C512.249 398.208 512.113 398.483 512.043 398.824C511.974 399.165 511.939 399.584 511.939 400.08C511.939 400.592 511.974 401.021 512.043 401.368C512.113 401.709 512.249 401.984 512.451 402.192C512.654 402.4 512.947 402.504 513.331 402.504C513.715 402.504 514.009 402.4 514.211 402.192C514.414 401.984 514.55 401.709 514.619 401.368C514.689 401.021 514.723 400.592 514.723 400.08Z" fill="#8DFFDE"/>
<path d="M539.816 398.664C539.699 397.971 539.296 397.624 538.608 397.624C538.085 397.624 537.693 397.827 537.432 398.232C537.171 398.637 537.051 399.301 537.072 400.224C537.179 399.904 537.381 399.653 537.68 399.472C537.984 399.285 538.331 399.192 538.72 399.192C539.28 399.192 539.723 399.365 540.048 399.712C540.379 400.053 540.544 400.525 540.544 401.128C540.544 401.48 540.475 401.8 540.336 402.088C540.203 402.371 539.995 402.597 539.712 402.768C539.435 402.939 539.088 403.024 538.672 403.024C537.877 403.024 537.328 402.771 537.024 402.264C536.725 401.757 536.576 401.04 536.576 400.112C536.576 398.139 537.253 397.152 538.608 397.152C539.12 397.152 539.523 397.293 539.816 397.576C540.109 397.853 540.283 398.216 540.336 398.664H539.816ZM538.616 399.672C538.365 399.672 538.128 399.723 537.904 399.824C537.68 399.925 537.496 400.08 537.352 400.288C537.213 400.491 537.144 400.741 537.144 401.04C537.144 401.472 537.272 401.832 537.528 402.12C537.784 402.408 538.157 402.552 538.648 402.552C539.059 402.552 539.387 402.427 539.632 402.176C539.877 401.925 540 401.584 540 401.152C540 400.688 539.88 400.325 539.64 400.064C539.4 399.803 539.059 399.672 538.616 399.672ZM541.551 400.08C541.551 399.163 541.693 398.451 541.975 397.944C542.258 397.437 542.765 397.184 543.495 397.184C544.226 397.184 544.733 397.437 545.015 397.944C545.298 398.451 545.439 399.163 545.439 400.08C545.439 401.013 545.298 401.736 545.015 402.248C544.733 402.76 544.226 403.016 543.495 403.016C542.759 403.016 542.25 402.76 541.967 402.248C541.69 401.736 541.551 401.013 541.551 400.08ZM544.887 400.08C544.887 399.584 544.853 399.165 544.783 398.824C544.714 398.483 544.578 398.208 544.375 398C544.173 397.792 543.879 397.688 543.495 397.688C543.111 397.688 542.818 397.792 542.615 398C542.413 398.208 542.277 398.483 542.207 398.824C542.138 399.165 542.103 399.584 542.103 400.08C542.103 400.592 542.138 401.021 542.207 401.368C542.277 401.709 542.413 401.984 542.615 402.192C542.818 402.4 543.111 402.504 543.495 402.504C543.879 402.504 544.173 402.4 544.375 402.192C544.578 401.984 544.714 401.709 544.783 401.368C544.853 401.021 544.887 400.592 544.887 400.08ZM546.481 400.08C546.481 399.163 546.622 398.451 546.905 397.944C547.188 397.437 547.694 397.184 548.425 397.184C549.156 397.184 549.662 397.437 549.945 397.944C550.228 398.451 550.369 399.163 550.369 400.08C550.369 401.013 550.228 401.736 549.945 402.248C549.662 402.76 549.156 403.016 548.425 403.016C547.689 403.016 547.18 402.76 546.897 402.248C546.62 401.736 546.481 401.013 546.481 400.08ZM549.817 400.08C549.817 399.584 549.782 399.165 549.713 398.824C549.644 398.483 549.508 398.208 549.305 398C549.102 397.792 548.809 397.688 548.425 397.688C548.041 397.688 547.748 397.792 547.545 398C547.342 398.208 547.206 398.483 547.137 398.824C547.068 399.165 547.033 399.584 547.033 400.08C547.033 400.592 547.068 401.021 547.137 401.368C547.206 401.709 547.342 401.984 547.545 402.192C547.748 402.4 548.041 402.504 548.425 402.504C548.809 402.504 549.102 402.4 549.305 402.192C549.508 401.984 549.644 401.709 549.713 401.368C549.782 401.021 549.817 400.592 549.817 400.08Z" fill="#8DFFDE"/>
<rect x="385.5" y="246.5" width="193" height="169" rx="7.5" stroke="url(#paint8_linear_119_2)"/>
</g>
<g filter="url(#filter6_b_119_2)">
<rect x="314" y="405" width="50" height="50" rx="8" fill="white" fill-opacity="0.1"/>
<path d="M319.733 414.35C320.18 413.41 321.13 412.812 322.181 412.812H351.478C352.529 412.812 353.479 413.41 353.926 414.35C354.374 415.29 354.238 416.398 353.574 417.203L346.351 425.945C340.912 427.053 336.83 431.813 336.83 437.52C336.83 439.359 337.257 441.105 338.016 442.656C337.908 442.602 337.799 442.535 337.698 442.461L333.357 439.238C332.808 438.835 332.489 438.198 332.489 437.52V432.209L320.079 417.197C319.421 416.398 319.279 415.283 319.733 414.35ZM339 437.52C339 434.955 340.029 432.496 341.86 430.683C343.692 428.87 346.176 427.852 348.766 427.852C351.356 427.852 353.84 428.87 355.671 430.683C357.502 432.496 358.531 434.955 358.531 437.52C358.531 440.084 357.502 442.543 355.671 444.356C353.84 446.169 351.356 447.188 348.766 447.188C346.176 447.188 343.692 446.169 341.86 444.356C340.029 442.543 339 440.084 339 437.52ZM347.192 435.331C347.233 435.27 347.314 435.19 347.477 435.103C347.823 434.921 348.325 434.827 348.745 434.834C349.301 434.841 349.905 434.955 350.536 435.109C351.119 435.25 351.709 434.901 351.851 434.324C351.994 433.746 351.641 433.162 351.058 433.021C350.678 432.927 350.271 432.84 349.844 432.773V432.148C349.844 431.558 349.356 431.074 348.759 431.074C348.162 431.074 347.674 431.558 347.674 432.148V432.786C347.26 432.867 346.84 433.001 346.453 433.209C345.653 433.632 344.893 434.445 344.975 435.707C345.042 436.781 345.768 437.405 346.439 437.768C347.036 438.083 347.775 438.292 348.379 438.459L348.501 438.493C349.2 438.688 349.715 438.842 350.074 439.05C350.38 439.232 350.393 439.332 350.393 439.426C350.4 439.587 350.359 439.675 350.325 439.728C350.285 439.796 350.203 439.876 350.054 439.95C349.735 440.118 349.254 440.205 348.799 440.192C348.155 440.172 347.545 439.984 346.772 439.735C346.643 439.695 346.514 439.655 346.378 439.614C345.809 439.44 345.198 439.755 345.022 440.319C344.846 440.883 345.164 441.487 345.734 441.662C345.843 441.696 345.958 441.729 346.073 441.769C346.548 441.924 347.097 442.092 347.68 442.213V442.978C347.68 443.569 348.169 444.052 348.766 444.052C349.362 444.052 349.851 443.569 349.851 442.978V442.266C350.271 442.192 350.698 442.058 351.092 441.85C351.912 441.414 352.604 440.594 352.563 439.373C352.529 438.285 351.865 437.607 351.173 437.204C350.536 436.828 349.735 436.606 349.105 436.432H349.091C348.386 436.237 347.85 436.083 347.47 435.881C347.145 435.707 347.145 435.613 347.145 435.579V435.573C347.138 435.445 347.165 435.378 347.199 435.331H347.192Z" fill="#84D1BB"/>
<rect x="314.5" y="405.5" width="49" height="49" rx="7.5" stroke="url(#paint9_linear_119_2)"/>
</g>
<g filter="url(#filter7_b_119_2)">
<rect x="29" y="126" width="64" height="64" rx="8" fill="white" fill-opacity="0.1"/>
<path d="M78.3422 176.667H41.0089V139.333" stroke="#84D1BB" stroke-width="2" stroke-linecap="round" stroke-linejoin="round"/>
<path d="M41.0089 171.355H45.8089C61.6311 171.355 74.3689 165.333 77.7289 148.667M67.6756 147.333C67.6756 146.862 67.4883 146.41 67.1549 146.076C66.8215 145.743 66.3693 145.556 65.8978 145.556H61.4534V141.111C61.4534 140.64 61.2661 140.187 60.9327 139.854C60.5993 139.521 60.1471 139.333 59.6756 139.333H57.0089C56.5374 139.333 56.0852 139.521 55.7518 139.854C55.4184 140.187 55.2311 140.64 55.2311 141.111V145.556H50.7867C50.3152 145.556 49.863 145.743 49.5296 146.076C49.1962 146.41 49.0089 146.862 49.0089 147.333V150C49.0089 150.471 49.1962 150.924 49.5296 151.257C49.863 151.59 50.3152 151.778 50.7867 151.778H55.2311V156.222C55.2311 156.694 55.4184 157.146 55.7518 157.479C56.0852 157.813 56.5374 158 57.0089 158H59.6756C60.1471 158 60.5993 157.813 60.9327 157.479C61.2661 157.146 61.4534 156.694 61.4534 156.222V151.778H65.8978C66.3693 151.778 66.8215 151.59 67.1549 151.257C67.4883 150.924 67.6756 150.471 67.6756 150V147.333Z" stroke="#84D1BB" stroke-width="2" stroke-linecap="round" stroke-linejoin="round"/>
<path d="M72.6818 151.924L77.7342 148.667L80.9911 153.719" stroke="#84D1BB" stroke-width="1.5" stroke-linecap="round" stroke-linejoin="round"/>
<rect x="29.5" y="126.5" width="63" height="63" rx="7.5" stroke="url(#paint10_linear_119_2)"/>
</g>
<defs>
<filter id="filter0_b_119_2" x="21" y="152" width="558" height="292" filterUnits="userSpaceOnUse" color-interpolation-filters="sRGB">
<feFlood flood-opacity="0" result="BackgroundImageFix"/>
<feGaussianBlur in="BackgroundImageFix" stdDeviation="8"/>
<feComposite in2="SourceAlpha" operator="in" result="effect1_backgroundBlur_119_2"/>
<feBlend mode="normal" in="SourceGraphic" in2="effect1_backgroundBlur_119_2" result="shape"/>
</filter>
<filter id="filter1_b_119_2" x="46" y="273" width="327" height="48" filterUnits="userSpaceOnUse" color-interpolation-filters="sRGB">
<feFlood flood-opacity="0" result="BackgroundImageFix"/>
<feGaussianBlur in="BackgroundImageFix" stdDeviation="4"/>
<feComposite in2="SourceAlpha" operator="in" result="effect1_backgroundBlur_119_2"/>
<feBlend mode="normal" in="SourceGraphic" in2="effect1_backgroundBlur_119_2" result="shape"/>
</filter>
<filter id="filter2_d_119_2" x="58.2349" y="188.157" width="300.53" height="48.5302" filterUnits="userSpaceOnUse" color-interpolation-filters="sRGB">
<feFlood flood-opacity="0" result="BackgroundImageFix"/>
<feColorMatrix in="SourceAlpha" type="matrix" values="0 0 0 0 0 0 0 0 0 0 0 0 0 0 0 0 0 0 127 0" result="hardAlpha"/>
<feMorphology radius="0.921695" operator="erode" in="SourceAlpha" result="effect1_dropShadow_119_2"/>
<feOffset dy="0.921695"/>
<feGaussianBlur stdDeviation="1.84339"/>
<feComposite in2="hardAlpha" operator="out"/>
<feColorMatrix type="matrix" values="0 0 0 0 0 0 0 0 0 0 0 0 0 0 0 0 0 0 0.07 0"/>
<feBlend mode="normal" in2="BackgroundImageFix" result="effect1_dropShadow_119_2"/>
<feBlend mode="normal" in="SourceGraphic" in2="effect1_dropShadow_119_2" result="shape"/>
</filter>
<filter id="filter3_b_119_2" x="348" y="181" width="120" height="61" filterUnits="userSpaceOnUse" color-interpolation-filters="sRGB">
<feFlood flood-opacity="0" result="BackgroundImageFix"/>
<feGaussianBlur in="BackgroundImageFix" stdDeviation="8"/>
<feComposite in2="SourceAlpha" operator="in" result="effect1_backgroundBlur_119_2"/>
<feBlend mode="normal" in="SourceGraphic" in2="effect1_backgroundBlur_119_2" result="shape"/>
</filter>
<filter id="filter4_b_119_2" x="436" y="181" width="121" height="61" filterUnits="userSpaceOnUse" color-interpolation-filters="sRGB">
<feFlood flood-opacity="0" result="BackgroundImageFix"/>
<feGaussianBlur in="BackgroundImageFix" stdDeviation="8"/>
<feComposite in2="SourceAlpha" operator="in" result="effect1_backgroundBlur_119_2"/>
<feBlend mode="normal" in="SourceGraphic" in2="effect1_backgroundBlur_119_2" result="shape"/>
</filter>
<filter id="filter5_b_119_2" x="377" y="238" width="210" height="186" filterUnits="userSpaceOnUse" color-interpolation-filters="sRGB">
<feFlood flood-opacity="0" result="BackgroundImageFix"/>
<feGaussianBlur in="BackgroundImageFix" stdDeviation="4"/>
<feComposite in2="SourceAlpha" operator="in" result="effect1_backgroundBlur_119_2"/>
<feBlend mode="normal" in="SourceGraphic" in2="effect1_backgroundBlur_119_2" result="shape"/>
</filter>
<filter id="filter6_b_119_2" x="298" y="389" width="82" height="82" filterUnits="userSpaceOnUse" color-interpolation-filters="sRGB">
<feFlood flood-opacity="0" result="BackgroundImageFix"/>
<feGaussianBlur in="BackgroundImageFix" stdDeviation="8"/>
<feComposite in2="SourceAlpha" operator="in" result="effect1_backgroundBlur_119_2"/>
<feBlend mode="normal" in="SourceGraphic" in2="effect1_backgroundBlur_119_2" result="shape"/>
</filter>
<filter id="filter7_b_119_2" x="13" y="110" width="96" height="96" filterUnits="userSpaceOnUse" color-interpolation-filters="sRGB">
<feFlood flood-opacity="0" result="BackgroundImageFix"/>
<feGaussianBlur in="BackgroundImageFix" stdDeviation="8"/>
<feComposite in2="SourceAlpha" operator="in" result="effect1_backgroundBlur_119_2"/>
<feBlend mode="normal" in="SourceGraphic" in2="effect1_backgroundBlur_119_2" result="shape"/>
</filter>
<radialGradient id="paint0_radial_119_2" cx="0" cy="0" r="1" gradientUnits="userSpaceOnUse" gradientTransform="translate(-3.81552e-05 339) scale(609 620.202)">
<stop stop-color="#1C765C"/>
<stop offset="1" stop-color="#043424"/>
</radialGradient>
<radialGradient id="paint1_radial_119_2" cx="0" cy="0" r="1" gradientUnits="userSpaceOnUse" gradientTransform="translate(428 277.5) rotate(149.518) scale(540.154 349.895)">
<stop stop-color="#85D1BB" stop-opacity="0.07"/>
<stop offset="1" stop-color="white" stop-opacity="0.01"/>
</radialGradient>
<radialGradient id="paint2_radial_119_2" cx="0" cy="0" r="1" gradientUnits="userSpaceOnUse" gradientTransform="translate(37 168) rotate(26.303) scale(586.75 1235.16)">
<stop stop-color="white" stop-opacity="0.44"/>
<stop offset="1" stop-color="#E1E1E1" stop-opacity="0.13"/>
</radialGradient>
<radialGradient id="paint3_radial_119_2" cx="0" cy="0" r="1" gradientUnits="userSpaceOnUse" gradientTransform="translate(563 168) rotate(153.697) scale(586.75 1235.16)">
<stop stop-color="#E6F5F5"/>
<stop offset="1" stop-color="#85D1BB" stop-opacity="0.11"/>
</radialGradient>
<linearGradient id="paint4_linear_119_2" x1="54" y1="281" x2="260.887" y2="287.534" gradientUnits="userSpaceOnUse">
<stop stop-color="#80FFDA"/>
<stop offset="1" stop-color="#B3FFE9"/>
</linearGradient>
<linearGradient id="paint5_linear_119_2" x1="408" y1="197" x2="408" y2="226" gradientUnits="userSpaceOnUse">
<stop stop-color="#C9FFEF"/>
<stop offset="1" stop-color="#CDFFF1" stop-opacity="0.44"/>
</linearGradient>
<linearGradient id="paint6_linear_119_2" x1="364" y1="197" x2="408.447" y2="240.528" gradientUnits="userSpaceOnUse">
<stop stop-color="#DAFFF4" stop-opacity="0.61"/>
<stop offset="1" stop-color="#96E0CB" stop-opacity="0"/>
</linearGradient>
<linearGradient id="paint7_linear_119_2" x1="496.5" y1="197" x2="496.5" y2="226" gradientUnits="userSpaceOnUse">
<stop stop-color="#E7FFF8"/>
<stop offset="1" stop-color="#9CF7DC"/>
</linearGradient>
<linearGradient id="paint8_linear_119_2" x1="385" y1="416" x2="553.528" y2="223.679" gradientUnits="userSpaceOnUse">
<stop stop-color="#85D1BB" stop-opacity="0"/>
<stop offset="1" stop-color="#DAFFF4" stop-opacity="0.34"/>
</linearGradient>
<linearGradient id="paint9_linear_119_2" x1="314" y1="455" x2="364" y2="405" gradientUnits="userSpaceOnUse">
<stop stop-color="#DAFFF4" stop-opacity="0.34"/>
<stop offset="1" stop-color="#85D1BB" stop-opacity="0"/>
</linearGradient>
<linearGradient id="paint10_linear_119_2" x1="29" y1="190" x2="93" y2="126" gradientUnits="userSpaceOnUse">
<stop stop-color="#DAFFF4" stop-opacity="0.34"/>
<stop offset="1" stop-color="#85D1BB" stop-opacity="0"/>
</linearGradient>
</defs>
</svg>
