<svg width="85" height="40" viewBox="0 0 85 40" fill="none" xmlns="http://www.w3.org/2000/svg">
<path d="M75.5461 7.50631C75.3591 7.77831 74.7981 8.67931 74.2881 9.49531C73.7951 10.3283 73.3361 10.9913 73.2851 10.9913C73.2171 10.9913 72.6731 10.6513 72.0781 10.2263C70.0891 8.83231 69.8341 9.03631 69.1201 12.7423C68.8141 14.3063 68.6101 15.6153 68.6441 15.6663C68.8651 15.8873 69.0691 15.6323 69.9701 14.0003C70.4971 13.0483 70.9561 12.2493 70.9901 12.2153C71.0071 12.1813 71.5511 12.5043 72.1971 12.9293C73.4211 13.7623 74.1691 13.9153 74.4411 13.4053C74.7301 12.8613 76.0051 7.76131 75.9541 7.37031C75.9031 7.01331 75.8861 7.03031 75.5461 7.50631Z" fill="white"/>
<path d="M64.7531 8.81512C64.7191 10.2601 64.5831 10.6171 63.9201 10.9571C63.5631 11.1271 63.3081 11.3991 63.2741 11.6031C63.2061 12.0451 64.4981 14.9011 64.7531 14.9011C64.8721 14.9011 64.9401 14.4251 64.9401 13.6601V12.4361L65.5691 12.0961C65.9261 11.9091 66.2321 11.6201 66.2661 11.4501C66.3341 11.0931 65.1101 7.93112 64.9061 7.93112C64.8381 7.93112 64.7531 8.33912 64.7531 8.81512Z" fill="white"/>
<path d="M7.98828 20.086V27.481H11.5243C15.8933 27.481 16.4713 27.345 17.7463 26.07C19.4123 24.404 19.4973 22.126 17.9843 20.477C17.4063 19.848 17.3723 19.746 17.5763 19.508C18.0693 18.964 18.5283 17.706 18.5283 16.839C18.5283 15.088 17.1513 13.371 15.3323 12.861C14.9923 12.776 13.1903 12.691 11.3543 12.691H7.98828V20.086ZM14.7883 16.261C15.2643 16.737 15.2303 17.536 14.7033 18.046C14.3293 18.437 14.1593 18.471 12.8333 18.471H11.3883V17.196V15.921H12.9183C14.2273 15.921 14.4993 15.972 14.7883 16.261ZM15.2473 21.905C15.7573 22.381 15.7743 23.316 15.2643 23.86C14.9243 24.217 14.7543 24.251 13.1393 24.251H11.3883V22.891V21.531H13.1223C14.6693 21.531 14.8903 21.565 15.2473 21.905Z" fill="white"/>
<path d="M35.187 14.4591L33.912 14.8501L33.861 15.9041L33.81 16.9411H32.977H32.127V18.4711V20.0011H32.96H33.793L33.861 22.6701C33.929 25.6791 34.048 26.0871 35.119 26.9201C35.68 27.3451 35.901 27.3961 37.414 27.4471L39.097 27.5151V26.0531V24.5911H38.366C37.091 24.5911 36.989 24.4041 36.904 22.0581L36.853 20.0011H37.975H39.097V18.4711V16.9581L38.043 16.9071L36.972 16.8561L36.921 15.4451C36.887 14.4931 36.802 14.0511 36.666 14.0681C36.547 14.0681 35.884 14.2551 35.187 14.4591Z" fill="white"/>
<path d="M43.3491 14.4591L42.0741 14.8501L42.0231 15.9041L41.9721 16.9411H41.1391H40.2891V18.4711V20.0011H41.1221H41.9551L42.0231 22.6701C42.0911 25.6791 42.2101 26.0871 43.2811 26.9201C43.8421 27.3451 44.0631 27.3961 45.5761 27.4471L47.2591 27.5151V26.0531V24.5911H46.5281C45.2531 24.5911 45.1511 24.4041 45.0661 22.0581L45.0151 20.0011H46.1371H47.2591V18.4711V16.9581L46.2051 16.9071L45.1341 16.8561L45.0831 15.4451C45.0491 14.4931 44.9641 14.0511 44.8281 14.0681C44.7091 14.0681 44.0461 14.2551 43.3491 14.4591Z" fill="white"/>
<path d="M24.2905 16.8219C21.6045 17.5869 20.0745 19.7799 20.2615 22.6359C20.3975 24.7779 21.7065 26.5969 23.6105 27.3279C24.8685 27.8039 26.9425 27.8549 28.1665 27.4299C28.9485 27.1579 30.5975 25.9339 30.5975 25.6449C30.5975 25.5769 30.0535 25.2369 29.4075 24.8799L28.2005 24.2339L27.4865 24.5739C26.6025 24.9989 25.5145 25.0329 24.7155 24.6589C24.1715 24.4039 23.6275 23.8429 23.6275 23.5369C23.6275 23.4519 25.3275 23.4009 27.3845 23.4009H31.1415L31.0735 21.9049C30.9885 20.2389 30.5465 19.1339 29.5435 18.1479C28.3195 16.9069 26.0245 16.3289 24.2905 16.8219ZM27.1805 19.9329C27.4865 20.1709 27.7925 20.5279 27.8945 20.6979C28.0475 21.0039 27.9625 21.0209 25.8375 21.0209C23.3385 21.0209 23.1855 20.9189 24.2225 20.0179C24.7495 19.5759 24.9705 19.4909 25.7525 19.4909C26.4835 19.4909 26.7555 19.5759 27.1805 19.9329Z" fill="white"/>
<path d="M52.9358 16.7879C51.8988 17.0259 50.4878 17.9439 49.8588 18.7769C48.7028 20.3069 48.4478 22.9419 49.3148 24.6759C49.8928 25.8319 51.0318 26.9029 52.1708 27.3279C53.4288 27.8039 55.5028 27.8549 56.7268 27.4299C57.5088 27.1579 59.1578 25.9339 59.1578 25.6449C59.1578 25.5769 58.6138 25.2369 57.9678 24.8799L56.7608 24.2339L56.0468 24.5739C55.1628 24.9989 54.0748 25.0329 53.2758 24.6589C52.7318 24.4039 52.1878 23.8429 52.1878 23.5369C52.1878 23.4519 53.8878 23.4009 55.9448 23.4009H59.7018L59.6338 21.9049C59.5148 19.5759 58.5458 18.0459 56.6248 17.1449C55.6048 16.6689 54.0408 16.5159 52.9358 16.7879ZM55.7408 19.9329C56.0468 20.1709 56.3528 20.5279 56.4548 20.6979C56.6078 21.0039 56.5228 21.0209 54.3978 21.0209C51.8988 21.0209 51.7458 20.9189 52.7828 20.0179C53.3098 19.5759 53.5308 19.4909 54.3128 19.4909C55.0438 19.4909 55.3158 19.5759 55.7408 19.9329Z" fill="white"/>
<path d="M66.552 17.009C66.263 17.128 65.787 17.485 65.481 17.774L64.937 18.335V17.638V16.941H63.322H61.707V22.211V27.481H63.322H64.937V24.591V21.718L65.447 21.123C65.974 20.545 67.232 20.086 67.776 20.29C67.946 20.358 67.997 20.018 67.997 18.573V16.771H67.538C67.266 16.788 66.824 16.89 66.552 17.009Z" fill="white"/>
<path d="M72.6034 17.9444C70.8864 19.0324 70.8524 19.2364 72.3824 19.0834L73.5724 18.9644L73.9464 19.5764C74.2014 19.9844 74.4394 20.1714 74.7114 20.1714C75.2214 20.1714 78.0604 18.6584 77.9244 18.4544C77.8734 18.3524 77.3294 18.3354 76.6154 18.4034L75.3914 18.5054L74.9664 17.8594C74.7284 17.4854 74.3884 17.1794 74.2014 17.1624C74.0144 17.1454 73.3004 17.4854 72.6034 17.9444Z" fill="white"/>
</svg>
